<svg width="220" height="94" viewBox="0 0 220 94" fill="none" xmlns="http://www.w3.org/2000/svg">
<g clip-path="url(#clip0_14_196232)">
<path d="M72.9055 34.25H62.5391V59.0417L72.9055 34.25Z" fill="#4C4C4D"/>
<path d="M80.1992 34.25H90.5522V59.0417L80.1992 34.25Z" fill="#4C4C4D"/>
<path d="M76.552 43.3906L83.1501 59.045H78.8212L76.8492 54.061H72.0205L76.552 43.3906Z" fill="#4C4C4D"/>
<path d="M107.465 50.0143L108.687 53.5194C108.728 53.6071 108.789 53.6477 108.897 53.6477H111.247C111.375 53.6477 111.396 53.5869 111.375 53.4586L106.52 39.9721C106.499 39.864 106.479 39.8438 106.371 39.8438H103.454C103.373 39.8438 103.325 39.9045 103.325 39.9923C103.285 40.7014 103.224 40.9175 103.136 41.1269L98.8073 53.4383C98.787 53.5869 98.8343 53.6477 98.9558 53.6477H101.056C101.184 53.6477 101.245 53.6071 101.293 53.4788L102.447 50.0143H107.465ZM103.116 47.7249C103.751 45.807 104.588 43.3488 104.926 41.9441H104.946C105.365 43.4163 106.351 46.3338 106.797 47.7249H103.116Z" fill="#4C4C4D"/>
<path d="M117.618 53.8556C118.881 53.8556 120.225 53.626 121.589 53.0384C121.697 52.9979 121.717 52.9506 121.717 52.8493C121.677 52.4712 121.629 51.9241 121.629 51.5054V38.8091C121.629 38.728 121.629 38.6875 121.528 38.6875H119.239C119.151 38.6875 119.11 38.728 119.11 38.8361V43.138C118.752 43.0975 118.503 43.0772 118.205 43.0772C114.511 43.0772 112.242 45.5152 112.242 48.5609C112.242 52.093 114.572 53.8556 117.618 53.8556ZM119.11 51.5054C118.732 51.627 118.313 51.6743 117.888 51.6743C116.213 51.6743 114.842 50.7288 114.842 48.4326C114.842 46.3999 116.254 45.1978 118.124 45.1978C118.503 45.1978 118.833 45.2383 119.11 45.3463V51.5054Z" fill="#4C4C4D"/>
<path d="M129.019 43.0781C125.865 43.0781 123.913 45.4958 123.913 48.4808C123.913 51.1484 125.466 53.8565 128.971 53.8565C131.936 53.8565 134.016 51.6752 134.016 48.4133C134.016 45.5364 132.254 43.0781 129.019 43.0781ZM128.89 45.1987C130.673 45.1987 131.43 46.7317 131.43 48.4808C131.43 50.6419 130.315 51.7157 129.019 51.7157C127.418 51.7157 126.473 50.3718 126.473 48.4336C126.473 46.4413 127.479 45.1987 128.89 45.1987Z" fill="#4C4C4D"/>
<path d="M136.384 38.6875C136.296 38.6875 136.235 38.728 136.235 38.8361V53.2073C136.235 53.2681 136.296 53.3761 136.384 53.3964C137.39 53.707 138.444 53.8556 139.531 53.8556C142.644 53.8556 145.67 51.9241 145.67 48.0342C145.67 45.218 143.738 43.0772 140.713 43.0772C140.017 43.0772 139.369 43.1853 138.802 43.3743L138.775 38.8563C138.775 38.7078 138.734 38.6875 138.586 38.6875H136.384ZM143.083 48.2908C143.083 50.6207 141.489 51.7148 139.767 51.7148C139.409 51.7148 139.092 51.6945 138.802 51.6067V45.4746C139.133 45.3463 139.531 45.2383 140.267 45.2383C141.928 45.2383 143.083 46.2918 143.083 48.2908Z" fill="#4C4C4D"/>
<path d="M154.214 49.0481C155.241 49.0481 156.085 49.0279 156.375 48.9603C156.484 48.9401 156.524 48.8995 156.544 48.8117C156.605 48.5821 156.632 48.1026 156.632 47.5151C156.632 45.5161 155.43 43.0781 152.323 43.0781C149.149 43.0781 147.387 45.6647 147.387 48.5821C147.387 51.1687 148.751 53.8565 152.573 53.8565C154.005 53.8565 154.93 53.6269 155.727 53.2487C155.808 53.2082 155.849 53.1407 155.849 53.0191V51.27C155.849 51.1687 155.788 51.1484 155.727 51.1889C154.93 51.5266 154.066 51.6954 153.12 51.6954C150.98 51.6954 150.007 50.5136 149.946 49.0481H154.214ZM149.946 47.2382C150.115 46.2117 150.763 45.0974 152.215 45.0974C153.816 45.0974 154.235 46.4413 154.235 47.0491C154.235 47.0694 154.235 47.1572 154.235 47.2179C154.147 47.2382 153.877 47.2382 153.08 47.2382H149.946Z" fill="#4C4C4D"/>
</g>
<defs>
<clipPath id="clip0_14_196232">
<rect width="94.2083" height="34" fill="white" transform="translate(62.5391 30)"/>
</clipPath>
</defs>
</svg>
