<svg width="220" height="94" viewBox="0 0 220 94" fill="none" xmlns="http://www.w3.org/2000/svg">
<g clip-path="url(#clip0_14_196227)">
<path fill-rule="evenodd" clip-rule="evenodd" d="M118.803 56.7787C114.296 60.1011 107.763 61.8738 102.137 61.8738C94.2501 61.8738 87.1495 58.9565 81.7776 54.1046C81.3556 53.7231 81.7337 53.2031 82.2402 53.5002C88.0375 56.8733 95.2057 58.9025 102.61 58.9025C107.604 58.9025 113.097 57.8693 118.148 55.7253C118.912 55.4012 119.55 56.225 118.803 56.7787Z" fill="#4C4C4D"/>
<path fill-rule="evenodd" clip-rule="evenodd" d="M120.677 54.6347C120.103 53.8987 116.869 54.287 115.417 54.4592C114.975 54.5132 114.907 54.1283 115.306 53.8514C117.882 52.0383 122.109 52.5616 122.602 53.1694C123.095 53.7805 122.474 58.0179 120.053 60.0404C119.681 60.351 119.327 60.1856 119.492 59.7737C120.036 58.4163 121.255 55.3742 120.677 54.6347Z" fill="#4C4C4D"/>
<path fill-rule="evenodd" clip-rule="evenodd" d="M115.519 41.0526V39.2901C115.519 39.0233 115.722 38.8444 115.965 38.8444H123.856C124.109 38.8444 124.311 39.0267 124.311 39.2901V40.7993C124.308 41.0526 124.095 41.3835 123.717 41.9068L119.628 47.7446C121.148 47.7075 122.751 47.9337 124.129 48.7103C124.44 48.8859 124.524 49.1425 124.548 49.3957V51.2764C124.548 51.533 124.264 51.8335 123.967 51.6782C121.539 50.4053 118.315 50.2668 115.631 51.6917C115.357 51.8403 115.07 51.5431 115.07 51.2865V49.5004C115.07 49.2134 115.073 48.7238 115.36 48.2883L120.098 41.4949H115.975C115.722 41.4949 115.519 41.3159 115.519 41.0526Z" fill="#4C4C4D"/>
<path fill-rule="evenodd" clip-rule="evenodd" d="M86.7351 52.0496H84.3345C84.1049 52.0327 83.9226 51.8605 83.9057 51.6411V39.3205C83.9057 39.074 84.1117 38.8782 84.3683 38.8782H86.6068C86.8398 38.8883 87.0255 39.0673 87.0424 39.2901V40.9007H87.0863C87.6704 39.3441 88.7677 38.6182 90.2466 38.6182C91.7491 38.6182 92.6878 39.3441 93.3631 40.9007C93.9438 39.3441 95.264 38.6182 96.6787 38.6182C97.6849 38.6182 98.7856 39.0335 99.4575 39.9654C100.217 41.002 100.062 42.5078 100.062 43.828L100.059 51.6039C100.059 51.8504 99.8526 52.0496 99.5959 52.0496H97.1987C96.959 52.0327 96.7665 51.8403 96.7665 51.6039V45.0739C96.7665 44.554 96.8138 43.2574 96.699 42.7644C96.52 41.9372 95.9832 41.7042 95.2876 41.7042C94.7069 41.7042 94.0991 42.0925 93.8526 42.7138C93.6062 43.3351 93.6298 44.375 93.6298 45.0739V51.6039C93.6298 51.8504 93.4238 52.0496 93.1672 52.0496H90.77C90.5269 52.0327 90.3378 51.8403 90.3378 51.6039L90.3344 45.0739C90.3344 43.6997 90.5606 41.6772 88.8555 41.6772C87.1302 41.6772 87.1977 43.6491 87.1977 45.0739V51.6039C87.1977 51.8504 86.9917 52.0496 86.7351 52.0496Z" fill="#4C4C4D"/>
<path fill-rule="evenodd" clip-rule="evenodd" d="M131.105 38.6182C134.667 38.6182 136.595 41.6772 136.595 45.5669C136.595 49.3248 134.464 52.3062 131.105 52.3062C127.607 52.3062 125.702 49.2472 125.702 45.4352C125.702 41.5996 127.63 38.6182 131.105 38.6182ZM131.125 41.1336C129.356 41.1336 129.244 43.5444 129.244 45.0469C129.244 46.5528 129.221 49.7671 131.105 49.7671C132.965 49.7671 133.053 47.1741 133.053 45.5939C133.053 44.554 133.009 43.3114 132.695 42.3255C132.425 41.4679 131.888 41.1336 131.125 41.1336Z" fill="#4C4C4D"/>
<path fill-rule="evenodd" clip-rule="evenodd" d="M141.214 52.0496H138.823C138.584 52.0327 138.391 51.8403 138.391 51.6039L138.388 39.28C138.408 39.0538 138.607 38.8782 138.85 38.8782H141.075C141.285 38.8883 141.457 39.0301 141.504 39.2226V41.1066H141.548C142.22 39.4218 143.162 38.6182 144.82 38.6182C145.897 38.6182 146.947 39.0065 147.622 40.0701C148.25 41.056 148.25 42.7138 148.25 43.9057V51.6613C148.223 51.8774 148.024 52.0496 147.788 52.0496H145.38C145.161 52.0327 144.978 51.8707 144.955 51.6613V44.9693C144.955 43.6221 145.11 41.6502 143.452 41.6502C142.868 41.6502 142.331 42.0419 142.065 42.6361C141.727 43.3891 141.683 44.1387 141.683 44.9693V51.6039C141.68 51.8504 141.47 52.0496 141.214 52.0496Z" fill="#4C4C4D"/>
<path fill-rule="evenodd" clip-rule="evenodd" d="M109.229 46.1645C109.229 47.0998 109.253 47.8797 108.78 48.7103C108.398 49.3856 107.791 49.8009 107.119 49.8009C106.197 49.8009 105.657 49.0986 105.657 48.062C105.657 46.0159 107.49 45.6445 109.229 45.6445V46.1645ZM111.65 52.0158C111.491 52.1576 111.262 52.1678 111.083 52.0732C110.286 51.4114 110.141 51.1042 109.705 50.4728C108.388 51.8166 107.453 52.2184 105.748 52.2184C103.725 52.2184 102.155 50.9725 102.155 48.4773C102.155 46.5291 103.209 45.2022 104.715 44.5539C106.018 43.9799 107.838 43.8786 109.229 43.72V43.4093C109.229 42.8387 109.273 42.1634 108.935 41.6705C108.645 41.2282 108.084 41.0458 107.588 41.0458C106.673 41.0458 105.859 41.5151 105.66 42.4876C105.62 42.7036 105.461 42.9164 105.241 42.9265L102.915 42.6766C102.719 42.6327 102.5 42.4741 102.557 42.1736C103.091 39.3509 105.643 38.5 107.926 38.5C109.094 38.5 110.62 38.8106 111.542 39.6953C112.71 40.7858 112.599 42.2411 112.599 43.8246V47.5657C112.599 48.6901 113.065 49.183 113.503 49.7908C113.655 50.0069 113.689 50.2668 113.493 50.4289C113.004 50.8375 112.133 51.5972 111.653 52.0226L111.65 52.0158Z" fill="#4C4C4D"/>
<path fill-rule="evenodd" clip-rule="evenodd" d="M77.7572 46.1645C77.7572 47.0997 77.7808 47.8797 77.3081 48.7103C76.9266 49.3856 76.3222 49.8009 75.6469 49.8009C74.7252 49.8009 74.1883 49.0986 74.1883 48.062C74.1883 46.0159 76.0217 45.6445 77.7572 45.6445V46.1645ZM80.1781 52.0158C80.0194 52.1576 79.7898 52.1678 79.6109 52.0732C78.814 51.4114 78.6722 51.1042 78.2333 50.4728C76.9165 51.8166 75.9846 52.2184 74.2761 52.2184C72.257 52.2184 70.6836 50.9725 70.6836 48.4773C70.6836 46.5291 71.7404 45.2022 73.2429 44.5539C74.5462 43.9799 76.3661 43.8786 77.7572 43.72V43.4093C77.7572 42.8387 77.8011 42.1634 77.4668 41.6705C77.1731 41.2281 76.6126 41.0458 76.1196 41.0458C75.2046 41.0458 74.3875 41.5151 74.1883 42.4876C74.1478 42.7036 73.9891 42.9164 73.773 42.9265L71.4433 42.6766C71.2475 42.6327 71.0314 42.474 71.0854 42.1735C71.6222 39.3509 74.1714 38.5 76.4539 38.5C77.6221 38.5 79.1483 38.8106 80.07 39.6953C81.2383 40.7858 81.1269 42.2411 81.1269 43.8246V47.5657C81.1269 48.69 81.5928 49.183 82.0317 49.7908C82.1871 50.0068 82.2208 50.2668 82.025 50.4289C81.5354 50.8374 80.6643 51.5971 80.1848 52.0226L80.1781 52.0158Z" fill="#4C4C4D"/>
</g>
<defs>
<clipPath id="clip0_14_196227">
<rect width="77.9166" height="34" fill="white" transform="translate(70.6846 30)"/>
</clipPath>
</defs>
</svg>
