<svg width="220" height="94" viewBox="0 0 220 94" fill="none" xmlns="http://www.w3.org/2000/svg">
<g clip-path="url(#clip0_14_196247)">
<path d="M81.1418 56.9584C79.959 57.1661 78.7554 57.2284 77.5103 57.3942L73.7126 46.2713V57.8716C72.5298 57.9961 71.4507 58.1621 70.3301 58.3281V37.0781H73.4845L77.8008 49.1352V37.0781H81.1418V56.9584ZM87.6787 44.8601C88.9654 44.8601 90.9368 44.7978 92.1197 44.7978V48.1181C90.6462 48.1181 88.9239 48.1181 87.6787 48.1804V53.1194C89.6295 52.9949 91.5802 52.8288 93.5515 52.7665V55.9621L84.3583 56.6886V37.0781H93.5515V40.3984H87.6787V44.8601ZM105.899 40.3985H102.454V55.6719C101.333 55.6719 100.213 55.6719 99.1339 55.7133V40.3985H95.6891V37.0781H105.899L105.899 40.3985ZM111.294 44.6319H115.839V47.9521H111.294V55.4852H108.036V37.0781H117.312V40.3984H111.294V44.6319ZM122.708 52.5798C124.596 52.6212 126.505 52.7667 128.353 52.8703V56.1492C125.385 55.9623 122.417 55.7757 119.388 55.7133V37.0781H122.708V52.5798ZM131.154 56.3774C132.212 56.4398 133.333 56.5021 134.412 56.6264V37.0781H131.154V56.3774ZM148.959 37.0781L144.747 47.1844L148.959 58.3281C147.714 58.1621 146.469 57.9338 145.224 57.7263L142.837 51.5838L140.41 57.2284C139.206 57.0207 138.044 56.9584 136.84 56.7924L141.115 47.0597L137.255 37.0781H140.824L143.003 42.6604L145.328 37.0781H148.959V37.0781Z" fill="#4C4C4D"/>
</g>
<defs>
<clipPath id="clip0_14_196247">
<rect width="78.625" height="34" fill="white" transform="translate(70.3301 30)"/>
</clipPath>
</defs>
</svg>
