<svg width="220" height="94" viewBox="0 0 220 94" fill="none" xmlns="http://www.w3.org/2000/svg">
<g clip-path="url(#clip0_14_196243)">
<path d="M95.7845 54.6319V44.3221H95.9682L103.473 54.6319H105.834V39.4918H103.21V49.7756H103.027L95.5221 39.4918H93.1605V54.6319H95.7845ZM113.26 54.8656C116.724 54.8656 118.849 52.6323 118.849 48.8927C118.849 45.1791 116.724 42.9197 113.26 42.9197C109.823 42.9197 107.671 45.1791 107.671 48.8927C107.697 52.6323 109.796 54.8656 113.26 54.8656ZM113.26 52.6842C111.423 52.6842 110.374 51.3078 110.374 48.8927C110.374 46.5035 111.423 45.1011 113.26 45.1011C115.097 45.1011 116.146 46.5035 116.146 48.8927C116.146 51.3078 115.097 52.6842 113.26 52.6842ZM121.237 40.3488V43.2314H119.4V45.3089H121.237V51.5675C121.237 53.8009 122.287 54.6838 124.963 54.6838C125.462 54.6838 125.96 54.6319 126.354 54.554V52.5284C126.039 52.5544 125.829 52.5803 125.462 52.5803C124.36 52.5803 123.861 52.0869 123.861 50.9443V45.3089H126.354V43.2314H123.861V40.3488H121.237ZM127.928 54.6319H130.552V43.1534H127.928V54.6319ZM129.24 41.2577C130.106 41.2577 130.814 40.5565 130.814 39.6995C130.814 38.8166 130.106 38.1154 129.24 38.1154C128.374 38.1154 127.666 38.8166 127.666 39.6995C127.666 40.5565 128.374 41.2577 129.24 41.2577ZM137.742 54.8656C141.205 54.8656 143.331 52.6323 143.331 48.8927C143.331 45.1791 141.205 42.9197 137.742 42.9197C134.304 42.9197 132.153 45.1791 132.153 48.8927C132.153 52.6323 134.252 54.8656 137.742 54.8656ZM137.742 52.6842C135.905 52.6842 134.855 51.3078 134.855 48.8927C134.855 46.5035 135.905 45.1011 137.742 45.1011C139.552 45.1011 140.628 46.5035 140.628 48.8927C140.602 51.3078 139.552 52.6842 137.742 52.6842ZM144.879 54.6319H147.503V47.9578C147.503 46.2698 148.5 45.205 150.048 45.205C151.649 45.205 152.384 46.088 152.384 47.8279V54.6319H155.007V47.2047C155.007 44.4519 153.591 42.9197 151.019 42.9197C149.287 42.9197 148.133 43.6988 147.582 44.9973H147.398V43.1534H144.853C144.879 43.1534 144.879 54.6319 144.879 54.6319Z" fill="#4C4C4D"/>
<path fill-rule="evenodd" clip-rule="evenodd" d="M68.0011 38.5227C68.7648 39.1388 69.0411 39.0902 70.471 38.9929L83.9415 38.1823C84.234 38.1823 83.9903 37.8904 83.8928 37.858L81.6504 36.2529C81.2279 35.9286 80.643 35.5395 79.5543 35.6368L66.5224 36.5933C66.0512 36.642 65.9537 36.8852 66.1487 37.0635L68.0011 38.5227ZM68.8136 41.6519V55.79C68.8136 56.552 69.1873 56.8276 70.0485 56.779L84.8515 55.9197C85.7127 55.871 85.8102 55.3522 85.8102 54.7361V40.6953C85.8102 40.0792 85.5664 39.7387 85.0465 39.7874L69.5773 40.6953C69.0086 40.744 68.8136 41.0358 68.8136 41.6519ZM83.4216 42.4139C83.5191 42.8355 83.4216 43.2732 82.9991 43.3219L82.2841 43.4678V53.9092C81.6667 54.2335 81.0979 54.428 80.6105 54.428C79.8467 54.428 79.6518 54.1848 79.083 53.4715L74.4195 46.1592V53.2283L75.8982 53.5525C75.8982 53.5525 75.8982 54.4118 74.712 54.4118L71.4297 54.6064C71.3322 54.4118 71.4297 53.9416 71.7547 53.8444L72.6159 53.6012V44.2623L71.4297 44.165C71.3322 43.7434 71.5759 43.1273 72.2421 43.0787L75.7682 42.8355L80.6267 50.2288V43.6948L79.3918 43.5489C79.2943 43.0301 79.6843 42.6409 80.1555 42.5923L83.4216 42.4139ZM65.4338 35.2963L79.0018 34.3073C80.6592 34.1613 81.0979 34.2586 82.1379 35.0207L86.4602 38.0525C87.1751 38.5714 87.4189 38.7173 87.4189 39.2848V55.9359C87.4189 56.9735 87.0451 57.5896 85.7127 57.6869L69.9673 58.6435C68.9598 58.6922 68.4886 58.5462 67.9686 57.8815L64.7675 53.7471C64.1988 52.9851 63.9551 52.4176 63.9551 51.7528V36.95C63.9551 36.0907 64.3451 35.3936 65.4338 35.2963Z" fill="#4C4C4D"/>
</g>
<defs>
<clipPath id="clip0_14_196243">
<rect width="91.375" height="34" fill="white" transform="translate(63.9551 30)"/>
</clipPath>
</defs>
</svg>
