<svg width="220" height="94" viewBox="0 0 220 94" fill="none" xmlns="http://www.w3.org/2000/svg">
<g clip-path="url(#clip0_14_196219)">
<path d="M74.9886 32.1797C66.7733 32.1797 60.1133 38.8396 60.1133 47.0548C60.1133 55.2703 66.7733 61.9297 74.9886 61.9297C83.2047 61.9297 89.864 55.2703 89.864 47.0548C89.864 38.8401 83.2047 32.1804 74.9884 32.1804L74.9886 32.1797ZM81.8103 53.6338C81.5438 54.0708 80.9719 54.2094 80.5349 53.9411C77.0423 51.8078 72.6456 51.3246 67.4677 52.5077C66.9687 52.6213 66.4714 52.3087 66.3577 51.8096C66.2435 51.3104 66.5549 50.8131 67.0551 50.6994C72.7215 49.4048 77.582 49.9622 81.503 52.3585C81.9399 52.6267 82.0785 53.1969 81.8103 53.6338ZM83.631 49.5835C83.2953 50.1292 82.5812 50.3015 82.0359 49.9658C78.0374 47.5081 71.9424 46.7963 67.213 48.2319C66.5996 48.4172 65.9518 48.0715 65.7656 47.4592C65.5809 46.8459 65.9268 46.1993 66.5391 46.0128C71.9413 44.3736 78.6573 45.1676 83.2491 47.9893C83.7944 48.325 83.9667 49.0391 83.631 49.5837V49.5835ZM83.7873 45.3659C78.9931 42.5183 71.0832 42.2565 66.5058 43.6457C65.7708 43.8686 64.9935 43.4537 64.7707 42.7187C64.548 41.9833 64.9626 41.2065 65.6981 40.983C70.9526 39.3879 79.6876 39.6961 85.2073 42.9728C85.8698 43.3652 86.0865 44.2191 85.694 44.8793C85.3032 45.5405 84.447 45.7584 83.788 45.3659H83.7873ZM100.584 45.9115C98.0155 45.2991 97.559 44.8692 97.559 43.966C97.559 43.1126 98.3618 42.5384 99.5573 42.5384C100.715 42.5384 101.863 42.9744 103.067 43.8722C103.103 43.8994 103.149 43.9102 103.193 43.9031C103.24 43.8963 103.279 43.8716 103.305 43.8345L104.559 42.0667C104.611 41.9939 104.597 41.8936 104.527 41.838C103.094 40.6882 101.481 40.1292 99.5946 40.1292C96.8218 40.1292 94.8838 41.7934 94.8838 44.1745C94.8838 46.7279 96.5553 47.6321 99.4436 48.33C101.9 48.8961 102.316 49.3704 102.316 50.218C102.316 51.1577 101.477 51.7421 100.127 51.7421C98.6283 51.7421 97.4044 51.2358 96.0367 50.0528C96.0029 50.0226 95.9567 50.0102 95.9141 50.012C95.8679 50.0155 95.8271 50.0368 95.7986 50.0706L94.3918 51.7439C94.3332 51.8149 94.3403 51.9179 94.4078 51.9783C95.9994 53.3994 97.9568 54.149 100.071 54.149C103.058 54.149 104.989 52.5165 104.989 49.9889C104.995 47.8561 103.717 46.6748 100.589 45.9139L100.584 45.9115ZM111.75 43.3785C110.455 43.3785 109.393 43.8887 108.515 44.9341V43.7574C108.515 43.6645 108.441 43.5889 108.348 43.5889H106.048C105.956 43.5889 105.881 43.6645 105.881 43.7574V56.8312C105.881 56.9235 105.956 56.9999 106.048 56.9999H108.348C108.441 56.9999 108.515 56.9235 108.515 56.8312V52.7048C109.393 53.6871 110.455 54.1685 111.75 54.1685C114.157 54.1685 116.594 52.3158 116.594 48.7741C116.597 45.2316 114.16 43.3784 111.752 43.3784L111.75 43.3785ZM113.919 48.7741C113.919 50.5768 112.809 51.8362 111.217 51.8362C109.645 51.8362 108.458 50.52 108.458 48.7741C108.458 47.028 109.645 45.7121 111.217 45.7121C112.782 45.7119 113.919 46.9994 113.919 48.7739V48.7741ZM122.837 43.3785C119.738 43.3785 117.31 45.7652 117.31 48.8126C117.31 51.8273 119.722 54.188 122.8 54.188C125.91 54.188 128.346 51.8096 128.346 48.7741C128.346 45.7488 125.926 43.3789 122.837 43.3789V43.3785ZM122.837 51.854C121.189 51.854 119.946 50.5289 119.946 48.7732C119.946 47.0095 121.146 45.7297 122.8 45.7297C124.459 45.7297 125.71 47.0542 125.71 48.8117C125.71 50.575 124.502 51.854 122.837 51.854ZM134.964 43.5889H132.433V41.0015C132.433 40.9088 132.358 40.8331 132.266 40.8331H129.966C129.873 40.8331 129.797 40.9088 129.797 41.0015V43.5889H128.692C128.6 43.5889 128.525 43.6645 128.525 43.7574V45.7339C128.525 45.8266 128.6 45.9025 128.692 45.9025H129.797V51.0173C129.797 53.0832 130.826 54.1312 132.856 54.1312C133.68 54.1312 134.364 53.9607 135.009 53.5948C135.062 53.5663 135.094 53.5095 135.094 53.4491V51.5662C135.094 51.5094 135.064 51.4543 135.014 51.4241C134.964 51.3921 134.902 51.3904 134.851 51.417C134.408 51.639 133.98 51.7421 133.501 51.7421C132.763 51.7421 132.433 51.4064 132.433 50.6568V45.9034H134.964C135.057 45.9034 135.131 45.8277 135.131 45.7348V43.7585C135.135 43.6656 135.06 43.5899 134.966 43.5899L134.964 43.5889ZM143.782 43.599V43.2812C143.782 42.3463 144.141 41.9294 144.944 41.9294C145.423 41.9294 145.809 42.0247 146.24 42.1685C146.294 42.1852 146.349 42.1769 146.391 42.1451C146.436 42.1133 146.461 42.0623 146.461 42.0083V40.0704C146.461 39.9963 146.414 39.9307 146.342 39.9089C145.887 39.7734 145.304 39.6343 144.43 39.6343C142.308 39.6343 141.183 40.8304 141.183 43.0922V43.5789H140.078C139.986 43.5789 139.91 43.6546 139.91 43.7473V45.7339C139.91 45.8266 139.986 45.9025 140.078 45.9025H141.183V53.7901C141.183 53.8843 141.26 53.9589 141.352 53.9589H143.65C143.745 53.9589 143.819 53.8843 143.819 53.7901V45.903H145.967L149.256 53.7901C148.883 54.6179 148.516 54.7831 148.015 54.7831C147.61 54.7831 147.182 54.6623 146.747 54.4225C146.706 54.4012 146.656 54.3976 146.613 54.4101C146.569 54.4261 146.532 54.458 146.514 54.5007L145.734 56.2112C145.697 56.293 145.729 56.3871 145.807 56.4297C146.62 56.8703 147.354 57.0585 148.262 57.0585C149.96 57.0585 150.899 56.2663 151.725 54.1383L155.715 43.8292C155.736 43.7773 155.729 43.7187 155.697 43.6727C155.667 43.627 155.616 43.5995 155.561 43.5995H153.166C153.093 43.5995 153.029 43.6452 153.006 43.7125L150.553 50.7171L147.867 43.7079C147.842 43.6427 147.78 43.5995 147.711 43.5995H143.782V43.599ZM138.67 43.5889H136.369C136.277 43.5889 136.201 43.6645 136.201 43.7574V53.7901C136.201 53.8843 136.277 53.9589 136.369 53.9589H138.67C138.762 53.9589 138.838 53.8843 138.838 53.7901V43.7581C138.838 43.6652 138.764 43.5896 138.67 43.5896V43.5889ZM137.533 39.0204C136.622 39.0204 135.883 39.7579 135.883 40.669C135.883 41.5806 136.622 42.319 137.533 42.319C138.444 42.319 139.181 41.5806 139.181 40.669C139.181 39.7581 138.442 39.0204 137.533 39.0204ZM157.68 46.8148C156.77 46.8148 156.061 46.0838 156.061 45.1962C156.061 44.3086 156.779 43.5693 157.689 43.5693C158.598 43.5693 159.307 44.3001 159.307 45.187C159.307 46.0746 158.589 46.8148 157.68 46.8148ZM157.689 43.7303C156.859 43.7303 156.232 44.3893 156.232 45.1962C156.232 46.0029 156.855 46.653 157.68 46.653C158.509 46.653 159.136 45.9945 159.136 45.187C159.136 44.3804 158.513 43.7303 157.689 43.7303ZM158.047 45.3534L158.506 45.9943H158.118L157.706 45.4064H157.353V45.9943H157.03V44.2955H157.786C158.182 44.2955 158.442 44.4974 158.442 44.8374C158.443 45.1159 158.282 45.2861 158.049 45.3534H158.047ZM157.774 44.587H157.353V45.1243H157.774C157.983 45.1243 158.11 45.0214 158.11 44.8554C158.11 44.6806 157.983 44.587 157.774 44.587Z" fill="#4C4C4D"/>
</g>
<defs>
<clipPath id="clip0_14_196219">
<rect width="99.1667" height="34" fill="white" transform="translate(60.0596 30)"/>
</clipPath>
</defs>
</svg>
