<svg width="220" height="94" viewBox="0 0 220 94" fill="none" xmlns="http://www.w3.org/2000/svg">
<g clip-path="url(#clip0_14_196215)">
<path d="M75.6436 55.0743L82.6238 44.2129H76.4705C76.4183 43.9 76.396 43.5573 76.396 43.1774C76.396 42.8123 76.4183 42.4771 76.4705 42.1717H86.4305L86.5571 42.5069L79.5248 53.3907H86.1176C86.1698 53.7334 86.1921 54.091 86.1921 54.4485C86.1921 54.7912 86.1698 55.119 86.1176 55.4319H75.7702L75.6436 55.0743Z" fill="#4C4C4D"/>
<path d="M95.7872 46.6937C95.7872 45.6731 95.5264 44.9729 95.0124 44.5706C94.4984 44.1758 93.746 43.9746 92.7627 43.9746C92.1593 43.9746 91.5931 44.0193 91.0716 44.1162C90.5427 44.213 90.0361 44.3322 89.5296 44.4886C89.2018 43.9225 89.0379 43.2371 89.0379 42.4475C89.6264 42.2612 90.2671 42.1122 90.9748 42.0079C91.6825 41.9036 92.3604 41.8515 93.0159 41.8515C94.7368 41.8515 96.0479 42.2463 96.9493 43.0285C97.8433 43.8107 98.2977 45.0697 98.2977 46.7905V55.0893C97.6943 55.2234 96.9642 55.3724 96.1001 55.514C95.2359 55.663 94.3569 55.73 93.4629 55.73C92.6211 55.73 91.8538 55.6555 91.1759 55.4991C90.498 55.3426 89.9169 55.0968 89.4402 54.7467C88.9634 54.404 88.5984 53.9645 88.3376 53.4281C88.0769 52.8917 87.9503 52.2436 87.9503 51.4912C87.9503 50.7537 88.0992 50.0981 88.4047 49.5394C88.7027 48.9807 89.1124 48.5114 89.6339 48.1464C90.1479 47.7739 90.7438 47.4983 91.4217 47.3195C92.0922 47.1407 92.7999 47.0438 93.5449 47.0438C94.0961 47.0438 94.5506 47.0587 94.9007 47.0811C95.2508 47.1034 95.5488 47.1407 95.7946 47.1705V46.6937H95.7872ZM95.7872 49.2042C95.5264 49.167 95.1987 49.1372 94.8038 49.0999C94.409 49.0627 94.0738 49.0478 93.7981 49.0478C92.7254 49.0478 91.9134 49.2489 91.3547 49.6437C90.796 50.0386 90.5129 50.642 90.5129 51.454C90.5129 51.968 90.6097 52.3777 90.796 52.6682C90.9822 52.9588 91.2206 53.1823 91.5037 53.3387C91.7868 53.4951 92.0997 53.592 92.4498 53.6218C92.7925 53.659 93.1202 53.6739 93.4331 53.6739C93.8279 53.6739 94.2377 53.6516 94.6623 53.6069C95.0869 53.5622 95.4594 53.5026 95.7872 53.4132V49.2042Z" fill="#4C4C4D"/>
<path d="M101.091 42.1722C101.263 42.135 101.441 42.1126 101.62 42.0977C101.799 42.0829 101.985 42.0754 102.179 42.0754C102.35 42.0754 102.529 42.0829 102.723 42.0977C102.909 42.1126 103.095 42.1424 103.266 42.1722C103.281 42.2095 103.304 42.3138 103.334 42.4926C103.356 42.6714 103.386 42.8651 103.408 43.0736C103.43 43.2822 103.46 43.4759 103.483 43.6696C103.505 43.8633 103.52 43.9825 103.52 44.0346C103.691 43.759 103.9 43.4908 104.138 43.2301C104.376 42.9693 104.667 42.7384 105.002 42.5298C105.337 42.3212 105.717 42.1573 106.142 42.0382C106.567 41.919 107.036 41.8594 107.55 41.8594C108.325 41.8594 109.047 41.986 109.71 42.2467C110.373 42.5075 110.939 42.9023 111.416 43.4461C111.893 43.9899 112.258 44.6827 112.526 45.5171C112.794 46.3514 112.929 47.3422 112.929 48.482C112.929 50.7616 112.31 52.542 111.081 53.8233C109.844 55.1047 108.101 55.7528 105.844 55.7528C105.464 55.7528 105.077 55.7304 104.682 55.6783C104.287 55.6261 103.937 55.5591 103.646 55.4697V61.5485C103.438 61.5858 103.222 61.6081 102.983 61.623C102.752 61.6379 102.536 61.6454 102.35 61.6454C102.164 61.6454 101.948 61.6379 101.717 61.623C101.486 61.6081 101.27 61.5783 101.084 61.5485V42.1722H101.091ZM103.654 53.2646C103.982 53.3838 104.317 53.4732 104.66 53.5254C105.002 53.5775 105.449 53.5999 106.008 53.5999C106.626 53.5999 107.2 53.503 107.714 53.3019C108.228 53.1007 108.675 52.7953 109.047 52.3856C109.42 51.9684 109.71 51.4469 109.926 50.8212C110.142 50.1954 110.247 49.443 110.247 48.5863C110.247 47.2081 109.993 46.1131 109.487 45.3011C108.98 44.4891 108.146 44.0868 106.991 44.0868C106.559 44.0868 106.149 44.1613 105.747 44.3177C105.352 44.4742 104.995 44.7051 104.689 45.018C104.376 45.3309 104.131 45.7182 103.937 46.195C103.743 46.6718 103.654 47.2305 103.654 47.886V53.2646Z" fill="#4C4C4D"/>
<path d="M116.117 44.1831H114.433C114.396 44.0415 114.374 43.8851 114.359 43.7063C114.344 43.5275 114.336 43.3487 114.336 43.1774C114.336 43.006 114.344 42.8272 114.359 42.6485C114.374 42.4697 114.404 42.3058 114.433 42.1717H118.627V55.4393C118.441 55.4766 118.225 55.4989 117.994 55.5138C117.763 55.5287 117.547 55.5362 117.361 55.5362C117.19 55.5362 116.989 55.5287 116.75 55.5138C116.519 55.4989 116.303 55.4691 116.117 55.4393V44.1831Z" fill="#4C4C4D"/>
<path d="M124.133 49.4353C124.17 50.8805 124.542 51.9458 125.257 52.6163C125.973 53.2867 127.03 53.622 128.424 53.622C129.645 53.622 130.815 53.4059 131.917 52.9739C132.059 53.2346 132.171 53.5475 132.253 53.92C132.342 54.2924 132.387 54.6575 132.409 55.0225C131.843 55.2609 131.217 55.4471 130.532 55.5663C129.854 55.6855 129.094 55.7451 128.267 55.7451C127.06 55.7451 126.025 55.5738 125.161 55.2385C124.297 54.9033 123.589 54.4265 123.03 53.8157C122.471 53.2048 122.062 52.4822 121.801 51.6404C121.54 50.806 121.414 49.8897 121.414 48.8841C121.414 47.9007 121.54 46.9844 121.786 46.1277C122.032 45.271 122.419 44.5335 122.933 43.9003C123.447 43.2745 124.103 42.768 124.885 42.4029C125.667 42.0305 126.598 41.8442 127.664 41.8442C128.58 41.8442 129.377 42.0007 130.07 42.3136C130.763 42.6264 131.336 43.0511 131.806 43.5949C132.268 44.1387 132.625 44.7868 132.863 45.5318C133.102 46.2842 133.229 47.0962 133.229 47.9752C133.229 48.2136 133.221 48.4743 133.199 48.7351C133.184 49.0033 133.161 49.2342 133.147 49.4204H124.133V49.4353ZM130.703 47.5208C130.703 47.0366 130.636 46.5747 130.509 46.1352C130.383 45.6957 130.189 45.3157 129.943 44.9879C129.69 44.6602 129.377 44.3994 128.99 44.1983C128.602 43.9972 128.14 43.9003 127.604 43.9003C126.554 43.9003 125.749 44.2206 125.183 44.8539C124.624 45.4945 124.282 46.381 124.162 47.5208H130.703Z" fill="#4C4C4D"/>
<path d="M136.059 42.1717C136.246 42.1344 136.432 42.1121 136.603 42.0972C136.775 42.0823 136.953 42.0748 137.147 42.0748C137.333 42.0748 137.527 42.0823 137.713 42.0972C137.899 42.1121 138.078 42.1419 138.227 42.1717C138.279 42.4324 138.332 42.7676 138.384 43.1923C138.436 43.6169 138.458 43.9745 138.458 44.265C138.823 43.6765 139.3 43.1699 139.896 42.7378C140.492 42.3058 141.252 42.0897 142.183 42.0897C142.324 42.0897 142.466 42.0972 142.608 42.1046C142.757 42.1121 142.876 42.127 142.98 42.1419C143.017 42.2983 143.04 42.4622 143.055 42.6336C143.069 42.8049 143.077 42.9837 143.077 43.1774C143.077 43.386 143.062 43.602 143.04 43.8255C143.017 44.049 142.98 44.265 142.95 44.4736C142.809 44.4363 142.667 44.4214 142.526 44.4214C142.377 44.4214 142.265 44.4214 142.175 44.4214C141.714 44.4214 141.267 44.4885 140.842 44.6151C140.417 44.7418 140.037 44.9727 139.702 45.3005C139.367 45.6283 139.099 46.0752 138.898 46.6489C138.697 47.215 138.6 47.9525 138.6 48.8465V55.4393C138.413 55.4766 138.197 55.4989 137.966 55.5138C137.736 55.5287 137.52 55.5362 137.333 55.5362C137.147 55.5362 136.931 55.5287 136.7 55.5138C136.469 55.4989 136.246 55.4691 136.037 55.4393V42.1717H136.059Z" fill="#4C4C4D"/>
<path d="M121.063 34.3648H118.56L120.333 32.5919C120.192 32.3982 120.035 32.2119 119.871 32.0406C119.7 31.8692 119.521 31.7128 119.32 31.5787L117.547 33.3517V30.8487C117.316 30.8114 117.078 30.7891 116.832 30.7891H116.825C116.579 30.7891 116.34 30.8114 116.109 30.8487V33.3517L114.336 31.5787C114.143 31.7203 113.956 31.8767 113.785 32.0406C113.614 32.2119 113.465 32.3907 113.323 32.5919L115.104 34.3648H112.601C112.601 34.3648 112.541 34.8342 112.541 35.08C112.541 35.3258 112.563 35.5642 112.601 35.7952H115.104L113.331 37.5682C113.606 37.9555 113.949 38.2982 114.344 38.5813L116.117 36.8083V39.3113C116.348 39.3486 116.586 39.3709 116.832 39.3709H116.839C117.085 39.3709 117.324 39.3486 117.555 39.3113V36.8083L119.328 38.5813C119.521 38.4397 119.707 38.2833 119.879 38.1194C120.05 37.9481 120.207 37.7693 120.341 37.5682L118.568 35.7952H121.071C121.108 35.5642 121.13 35.3258 121.13 35.08V35.0726C121.123 34.8342 121.108 34.5958 121.063 34.3648ZM117.905 35.0875C117.905 35.4078 117.845 35.7132 117.741 35.9963C117.458 36.1006 117.152 36.1602 116.832 36.1602C116.512 36.1602 116.206 36.1006 115.923 35.9963C115.819 35.7132 115.759 35.4078 115.759 35.0875V35.08C115.759 34.7597 115.819 34.4542 115.923 34.1712C116.206 34.0669 116.512 34.0073 116.832 34.0073C117.152 34.0073 117.458 34.0669 117.741 34.1712C117.845 34.4542 117.905 34.7597 117.905 35.0875Z" fill="#4C4C4D"/>
</g>
<defs>
<clipPath id="clip0_14_196215">
<rect width="68" height="34" fill="white" transform="translate(75.6426 30)"/>
</clipPath>
</defs>
</svg>
