<svg width="220" height="94" viewBox="0 0 220 94" fill="none" xmlns="http://www.w3.org/2000/svg">
<g clip-path="url(#clip0_14_196223)">
<path fill-rule="evenodd" clip-rule="evenodd" d="M131.394 44.5949C131.659 45.0522 131.746 45.5726 131.774 46.1575L131.812 46.9372V52.389L131.85 53.1695C131.927 54.4441 132.867 55.3866 134.152 55.4668L134.928 55.5052V46.9372L134.967 46.1575C134.998 45.5791 135.084 45.049 135.354 44.5884C135.628 44.1159 136.022 43.724 136.495 43.4518C136.969 43.1797 137.506 43.037 138.052 43.038C138.598 43.039 139.135 43.1836 139.607 43.4575C140.08 43.7314 140.472 44.1248 140.745 44.5982C141.01 45.0555 141.093 45.5856 141.124 46.1575L141.163 46.9347V52.389L141.201 53.1695C141.282 54.4507 142.214 55.3931 143.503 55.4668L144.279 55.5052V46.1575C144.279 44.5046 143.623 42.9193 142.454 41.7503C141.285 40.5812 139.7 39.9242 138.048 39.9235C137.163 39.9226 136.288 40.1105 135.482 40.4746C134.676 40.8387 133.956 41.3707 133.372 42.0351C132.788 41.371 132.068 40.8391 131.262 40.4749C130.456 40.1106 129.581 39.9224 128.697 39.9227C127.402 39.9227 126.201 40.3154 125.207 40.9936C124.599 40.3162 123.241 39.9227 122.462 39.9227V55.5052L123.241 55.4668C124.545 55.3809 125.488 54.4638 125.539 53.1695L125.58 52.389V46.9372L125.619 46.1575C125.652 45.5693 125.733 45.0522 125.999 44.5916C126.274 44.1195 126.667 43.7276 127.141 43.4552C127.614 43.1827 128.15 43.0392 128.697 43.0389C129.243 43.039 129.78 43.1828 130.253 43.4559C130.727 43.729 131.12 44.1218 131.394 44.5949ZM78.0507 55.4676L78.8304 55.5052H90.5171L90.4786 54.728C90.3731 53.4469 89.4658 52.5109 88.1806 52.4275L87.4009 52.389H80.3897L89.7374 43.0381L89.699 42.2617C89.6384 40.9674 88.6927 40.0323 87.4009 39.9611L86.6212 39.926L74.9346 39.9227L74.973 40.7024C75.0753 41.9712 75.9957 42.9268 77.2703 43.0004L78.0507 43.0389H85.0619L75.7142 52.3899L75.7527 53.1695C75.8296 54.4539 76.7565 55.3841 78.0507 55.4668V55.4676ZM119.403 42.2036C120.126 42.9271 120.7 43.786 121.092 44.7313C121.484 45.6767 121.685 46.6899 121.685 47.7131C121.685 48.7364 121.484 49.7496 121.092 50.695C120.7 51.6403 120.126 52.4992 119.403 53.2227C117.941 54.6835 115.959 55.504 113.892 55.504C111.825 55.504 109.843 54.6835 108.381 53.2227C105.339 50.1801 105.339 45.2461 108.381 42.2036C109.104 41.4804 109.963 40.9066 110.907 40.5151C111.852 40.1236 112.865 39.922 113.887 39.9219C114.911 39.9212 115.926 40.1224 116.872 40.5141C117.819 40.9057 118.679 41.4801 119.403 42.2044V42.2036ZM117.198 44.41C118.074 45.2871 118.567 46.4762 118.567 47.716C118.567 48.9558 118.074 50.1449 117.198 51.022C116.321 51.8983 115.132 52.3906 113.892 52.3906C112.652 52.3906 111.463 51.8983 110.586 51.022C109.71 50.1449 109.217 48.9558 109.217 47.716C109.217 46.4762 109.71 45.2871 110.586 44.41C111.463 43.5337 112.652 43.0414 113.892 43.0414C115.132 43.0414 116.321 43.5337 117.198 44.41ZM97.5348 39.9219C98.5575 39.9221 99.5701 40.1239 100.515 40.5155C101.459 40.9071 102.318 41.481 103.041 42.2044C106.084 45.2461 106.084 50.181 103.041 53.2227C101.579 54.6835 99.5966 55.504 97.5299 55.504C95.4632 55.504 93.4811 54.6835 92.0191 53.2227C88.9766 50.1801 88.9766 45.2461 92.0191 42.2036C92.7421 41.4804 93.6004 40.9066 94.5451 40.5151C95.4898 40.1236 96.5024 39.922 97.525 39.9219H97.5348ZM100.836 44.4084C101.712 45.2854 102.205 46.4747 102.205 47.7148C102.205 48.9548 101.712 50.1441 100.836 51.0212C99.9589 51.8975 98.7697 52.3898 97.5299 52.3898C96.2901 52.3898 95.101 51.8975 94.2239 51.0212C93.3476 50.1441 92.8553 48.955 92.8553 47.7152C92.8553 46.4753 93.3476 45.2862 94.2239 44.4092C95.101 43.5328 96.2901 43.0406 97.5299 43.0406C98.7697 43.0406 99.9589 43.5328 100.836 44.4092V44.4084Z" fill="#4C4C4D"/>
</g>
<defs>
<clipPath id="clip0_14_196223">
<rect width="69.4166" height="34" fill="white" transform="translate(74.9346 30)"/>
</clipPath>
</defs>
</svg>
