<svg width="52" height="52" viewBox="0 0 52 52" fill="none" xmlns="http://www.w3.org/2000/svg">
<rect x="0.5" y="0.5" width="51" height="51" rx="7.5" fill="#F7F7F8"/>
<rect x="0.5" y="0.5" width="51" height="51" rx="7.5" stroke="#F1F1F3"/>
<path d="M21.5502 35.7507C30.6045 35.7507 35.5583 28.2474 35.5583 21.7426C35.5583 21.5317 35.5536 21.316 35.5442 21.1051C36.5079 20.4082 37.3395 19.545 38 18.556C37.1025 18.9553 36.1496 19.2161 35.1739 19.3295C36.2013 18.7136 36.9705 17.7462 37.3391 16.6065C36.3726 17.1793 35.3156 17.5833 34.2134 17.8013C33.4708 17.0123 32.489 16.4898 31.4197 16.3148C30.3504 16.1397 29.2532 16.3218 28.2977 16.8328C27.3423 17.3439 26.5818 18.1554 26.1338 19.142C25.6859 20.1287 25.5754 21.2353 25.8195 22.291C23.8625 22.1928 21.9479 21.6844 20.2 20.7988C18.452 19.9132 16.9097 18.6702 15.673 17.1502C15.0444 18.234 14.8521 19.5164 15.135 20.7368C15.418 21.9573 16.1551 23.0242 17.1964 23.7207C16.4146 23.6959 15.65 23.4854 14.9656 23.1067V23.1676C14.9649 24.3049 15.3581 25.4073 16.0783 26.2875C16.7985 27.1677 17.8013 27.7713 18.9162 27.9957C18.1921 28.1939 17.432 28.2227 16.6948 28.0801C17.0095 29.0582 17.6216 29.9136 18.4458 30.5271C19.27 31.1405 20.2651 31.4813 21.2923 31.502C19.5484 32.8718 17.3942 33.6149 15.1766 33.6113C14.7833 33.6107 14.3904 33.5866 14 33.5392C16.2529 34.9845 18.8735 35.7521 21.5502 35.7507Z" fill="#333333"/>
</svg>
