<svg width="34" height="34" viewBox="0 0 34 34" fill="none" xmlns="http://www.w3.org/2000/svg">
<path fill-rule="evenodd" clip-rule="evenodd" d="M20.7049 2.25951C21.1317 2.49743 21.3411 2.99572 21.2126 3.4671L18.3911 13.8125H28.6875C29.1106 13.8125 29.4934 14.0635 29.662 14.4516C29.8306 14.8396 29.7529 15.2907 29.4643 15.6L14.5893 31.5375C14.2559 31.8947 13.7219 31.9785 13.2951 31.7406C12.8684 31.5026 12.6589 31.0044 12.7875 30.533L15.6089 20.1875H5.31252C4.88944 20.1875 4.50667 19.9365 4.33805 19.5485C4.16943 19.1605 4.2471 18.7094 4.53578 18.4001L19.4108 2.46257C19.7442 2.10538 20.2782 2.0216 20.7049 2.25951Z" fill="#262626"/>
</svg>
