<svg width="24" height="24" viewBox="0 0 24 24" fill="none" xmlns="http://www.w3.org/2000/svg">
<path fill-rule="evenodd" clip-rule="evenodd" d="M3.6001 12.0031C3.6001 11.5061 4.00304 11.1031 4.5001 11.1031L17.2656 11.1031L12.2763 6.35187C11.918 6.00736 11.9068 5.43762 12.2513 5.07933C12.5959 4.72103 13.1656 4.70986 13.5239 5.05437L20.1239 11.3544C20.3004 11.5241 20.4001 11.7583 20.4001 12.0031C20.4001 12.2479 20.3004 12.4822 20.1239 12.6519L13.5239 18.9519C13.1656 19.2964 12.5959 19.2852 12.2513 18.9269C11.9068 18.5686 11.918 17.9989 12.2763 17.6544L17.2656 12.9031L4.5001 12.9031C4.00304 12.9031 3.6001 12.5002 3.6001 12.0031Z" fill="white"/>
</svg>
