<svg width="120" height="63" viewBox="0 0 120 63" fill="none" xmlns="http://www.w3.org/2000/svg">
<rect x="0.5" y="0.5" width="119" height="62" rx="7.5" fill="#FCFCFD"/>
<rect x="0.5" y="0.5" width="119" height="62" rx="7.5" stroke="#F1F1F3"/>
<path d="M29.4636 38L24.8196 24.68H27.0336L30.8316 35.75L34.6116 24.68H36.8256L32.1636 38H29.4636ZM39.7551 26.822C39.3831 26.822 39.0771 26.696 38.8371 26.444C38.5971 26.192 38.4771 25.898 38.4771 25.562C38.4771 25.214 38.5971 24.92 38.8371 24.68C39.0771 24.428 39.3831 24.302 39.7551 24.302C40.1271 24.302 40.4331 24.428 40.6731 24.68C40.9251 24.92 41.0511 25.214 41.0511 25.562C41.0511 25.91 40.9251 26.21 40.6731 26.462C40.4331 26.702 40.1271 26.822 39.7551 26.822ZM38.7471 38V28.46H40.7991V38H38.7471ZM47.9161 38.18C47.1121 38.18 46.4161 38.042 45.8281 37.766C45.2521 37.478 44.7721 37.1 44.3881 36.632C44.0161 36.152 43.7341 35.618 43.5421 35.03C43.3621 34.442 43.2721 33.842 43.2721 33.23C43.2721 32.63 43.3621 32.036 43.5421 31.448C43.7221 30.86 43.9981 30.326 44.3701 29.846C44.7421 29.366 45.2161 28.988 45.7921 28.712C46.3681 28.424 47.0461 28.28 47.8261 28.28C48.6661 28.28 49.4041 28.472 50.0401 28.856C50.6881 29.228 51.1921 29.786 51.5521 30.53C51.9241 31.262 52.1101 32.174 52.1101 33.266V33.824H45.3421C45.3901 34.556 45.6361 35.186 46.0801 35.714C46.5241 36.242 47.1361 36.506 47.9161 36.506C48.3601 36.506 48.7261 36.434 49.0141 36.29C49.3021 36.134 49.5241 35.96 49.6801 35.768C49.8361 35.576 49.9441 35.408 50.0041 35.264C50.0761 35.12 50.1121 35.048 50.1121 35.048H52.0201C52.0201 35.048 51.9901 35.156 51.9301 35.372C51.8701 35.576 51.7561 35.834 51.5881 36.146C51.4321 36.458 51.2041 36.77 50.9041 37.082C50.6041 37.394 50.2081 37.658 49.7161 37.874C49.2241 38.078 48.6241 38.18 47.9161 38.18ZM45.3601 32.384H50.1301C50.0821 31.544 49.8301 30.926 49.3741 30.53C48.9301 30.134 48.4081 29.936 47.8081 29.936C47.1361 29.936 46.5781 30.158 46.1341 30.602C45.6901 31.034 45.4321 31.628 45.3601 32.384ZM56.3402 38L53.2982 28.46H55.3682L57.4562 35.354L59.6522 28.46H61.5602L63.7562 35.354L65.8442 28.46H67.9322L64.8722 38H62.6942L60.6062 31.448L58.5362 38H56.3402ZM73.3587 38L78.0027 24.68H80.7027L85.3647 38H83.1507L82.1247 35.012H76.5987L75.5727 38H73.3587ZM77.2287 33.14H81.4947L79.3707 26.93L77.2287 33.14ZM87.4539 38L87.4719 24.32H89.5059V38H87.4539ZM92.2352 38L92.2532 24.32H94.2872V38H92.2352Z" fill="#262626"/>
</svg>
