<svg width="39" height="43" viewBox="0 0 39 43" fill="none" xmlns="http://www.w3.org/2000/svg">
<path fill-rule="evenodd" clip-rule="evenodd" d="M13.0489 40.1269C9.32492 39.0752 5.42609 38.5447 1.64397 38.0587C0.829355 37.9568 0.0730442 38.5254 0.0148577 39.3264C-0.101515 40.1281 0.480691 40.8612 1.23712 40.9631C4.90286 41.4309 8.68465 41.9316 12.234 42.944C12.9904 43.1636 13.8054 42.7116 14.0381 41.9339C14.2709 41.1569 13.8053 40.3471 13.0489 40.1269Z" fill="#262626"/>
<path fill-rule="evenodd" clip-rule="evenodd" d="M24.3365 25.2158C18.3433 19.0609 11.5937 13.6983 5.71685 7.37833C5.19318 6.78808 4.26219 6.75646 3.68033 7.30747C3.09846 7.85907 3.0405 8.7866 3.62237 9.37685C9.4992 15.715 16.2488 21.0952 22.242 27.2682C22.8239 27.8444 23.7547 27.8526 24.3365 27.2857C24.8602 26.7195 24.9184 25.792 24.3365 25.2158Z" fill="#262626"/>
<path fill-rule="evenodd" clip-rule="evenodd" d="M35.5672 1.54341C35.7417 5.06616 35.9159 8.58891 36.0905 12.1123C36.0905 12.9192 36.7891 13.5422 37.6037 13.503C38.4183 13.4631 38.9998 12.7763 38.9998 11.9688C38.8253 8.44018 38.651 4.91216 38.4765 1.38413C38.4183 0.577224 37.7199 -0.0417174 36.9053 0.00219986C36.1489 0.0461172 35.509 0.737085 35.5672 1.54341Z" fill="#262626"/>
</svg>
