<svg width="62" height="62" viewBox="0 0 62 62" fill="none" xmlns="http://www.w3.org/2000/svg">
<rect width="62" height="62" rx="6" fill="#FFF4E6"/>
<path fill-rule="evenodd" clip-rule="evenodd" d="M34.7049 16.2595C35.1317 16.4974 35.3411 16.9957 35.2126 17.4671L32.3911 27.8125H42.6875C43.1106 27.8125 43.4934 28.0635 43.662 28.4516C43.8306 28.8396 43.7529 29.2907 43.4643 29.6L28.5893 45.5375C28.2559 45.8947 27.7219 45.9785 27.2951 45.7406C26.8684 45.5026 26.6589 45.0044 26.7875 44.533L29.6089 34.1875H19.3125C18.8894 34.1875 18.5067 33.9365 18.3381 33.5485C18.1694 33.1605 18.2471 32.7094 18.5358 32.4001L33.4108 16.4626C33.7442 16.1054 34.2782 16.0216 34.7049 16.2595Z" fill="#262626"/>
</svg>
