<svg width="95" height="34" viewBox="0 0 95 34" fill="none" xmlns="http://www.w3.org/2000/svg">
<g clip-path="url(#clip0_14_196233)">
<path d="M10.3664 4.25H0V29.0417L10.3664 4.25Z" fill="#4C4C4D"/>
<path d="M17.6602 4.25H28.0131V29.0417L17.6602 4.25Z" fill="#4C4C4D"/>
<path d="M14.013 13.3906L20.611 29.045H16.2821L14.3101 24.061H9.48145L14.013 13.3906Z" fill="#4C4C4D"/>
<path d="M44.926 20.0143L46.1484 23.5194C46.1889 23.6071 46.2497 23.6477 46.3578 23.6477H48.7079C48.8363 23.6477 48.8565 23.5869 48.8363 23.4586L43.9806 9.97206C43.9603 9.86401 43.94 9.84375 43.832 9.84375H40.9145C40.8335 9.84375 40.7862 9.90453 40.7862 9.99232C40.7457 10.7014 40.6849 10.9175 40.5971 11.1269L36.2682 23.4383C36.2479 23.5869 36.2952 23.6477 36.4168 23.6477H38.5171C38.6454 23.6477 38.7062 23.6071 38.7535 23.4788L39.9083 20.0143H44.926ZM40.5769 17.7249C41.2117 15.807 42.0491 13.3488 42.3868 11.9441H42.407C42.8257 13.4163 43.8117 16.3338 44.2575 17.7249H40.5769Z" fill="#4C4C4D"/>
<path d="M55.0788 23.8556C56.3417 23.8556 57.6856 23.626 59.0498 23.0384C59.1579 22.9979 59.1781 22.9506 59.1781 22.8493C59.1376 22.4712 59.0903 21.9241 59.0903 21.5054V8.80906C59.0903 8.72802 59.0903 8.6875 58.989 8.6875H56.6996C56.6119 8.6875 56.5713 8.72802 56.5713 8.83608V13.138C56.2134 13.0975 55.9635 13.0772 55.6664 13.0772C51.9723 13.0772 49.7031 15.5152 49.7031 18.5609C49.7031 22.093 52.033 23.8556 55.0788 23.8556ZM56.5713 21.5054C56.1931 21.627 55.7744 21.6743 55.349 21.6743C53.6741 21.6743 52.3032 20.7288 52.3032 18.4326C52.3032 16.3999 53.7146 15.1978 55.5853 15.1978C55.9635 15.1978 56.2944 15.2383 56.5713 15.3463V21.5054Z" fill="#4C4C4D"/>
<path d="M66.4796 13.0781C63.3257 13.0781 61.374 15.4958 61.374 18.4808C61.374 21.1484 62.9273 23.8565 66.4323 23.8565C69.397 23.8565 71.4771 21.6752 71.4771 18.4133C71.4771 15.5364 69.7144 13.0781 66.4796 13.0781ZM66.3513 15.1987C68.1342 15.1987 68.8905 16.7317 68.8905 18.4808C68.8905 20.6419 67.7762 21.7157 66.4796 21.7157C64.879 21.7157 63.9336 20.3718 63.9336 18.4336C63.9336 16.4413 64.9398 15.1987 66.3513 15.1987Z" fill="#4C4C4D"/>
<path d="M73.8449 8.6875C73.7571 8.6875 73.6963 8.72802 73.6963 8.83608V23.2073C73.6963 23.2681 73.7571 23.3761 73.8449 23.3964C74.8511 23.707 75.9046 23.8556 76.9919 23.8556C80.1052 23.8556 83.1307 21.9241 83.1307 18.0342C83.1307 15.218 81.1993 13.0772 78.1738 13.0772C77.4782 13.0772 76.8299 13.1853 76.2626 13.3743L76.2356 8.85633C76.2356 8.70776 76.195 8.6875 76.0465 8.6875H73.8449ZM80.5442 18.2908C80.5442 20.6207 78.9504 21.7148 77.2283 21.7148C76.8704 21.7148 76.553 21.6945 76.2626 21.6067V15.4746C76.5935 15.3463 76.9919 15.2383 77.7281 15.2383C79.3894 15.2383 80.5442 16.2918 80.5442 18.2908Z" fill="#4C4C4D"/>
<path d="M91.6753 19.0481C92.7018 19.0481 93.546 19.0279 93.8364 18.9603C93.9444 18.9401 93.985 18.8995 94.0052 18.8117C94.066 18.5821 94.093 18.1026 94.093 17.5151C94.093 15.5161 92.8909 13.0781 89.7844 13.0781C86.6103 13.0781 84.8477 15.6647 84.8477 18.5821C84.8477 21.1687 86.2118 23.8565 90.0343 23.8565C91.466 23.8565 92.3912 23.6269 93.1881 23.2487C93.2691 23.2082 93.3096 23.1407 93.3096 23.0191V21.27C93.3096 21.1687 93.2488 21.1484 93.1881 21.1889C92.3912 21.5266 91.5267 21.6954 90.5813 21.6954C88.4405 21.6954 87.468 20.5136 87.4072 19.0481H91.6753ZM87.4072 17.2382C87.576 16.2117 88.2243 15.0974 89.6763 15.0974C91.2769 15.0974 91.6956 16.4413 91.6956 17.0491C91.6956 17.0694 91.6956 17.1572 91.6956 17.2179C91.6078 17.2382 91.3376 17.2382 90.5407 17.2382H87.4072Z" fill="#4C4C4D"/>
</g>
<defs>
<clipPath id="clip0_14_196233">
<rect width="94.2083" height="34" fill="white"/>
</clipPath>
</defs>
</svg>
