<svg width="78" height="34" viewBox="0 0 78 34" fill="none" xmlns="http://www.w3.org/2000/svg">
<g clip-path="url(#clip0_14_196228)">
<path fill-rule="evenodd" clip-rule="evenodd" d="M48.1189 26.7787C43.6114 30.1011 37.078 31.8738 31.4529 31.8738C23.5656 31.8738 16.465 28.9565 11.0931 24.1046C10.671 23.7231 11.0492 23.2031 11.5556 23.5002C17.353 26.8733 24.5211 28.9025 31.9256 28.9025C36.9193 28.9025 42.4128 27.8693 47.4639 25.7253C48.227 25.4012 48.8651 26.225 48.1189 26.7787Z" fill="#4C4C4D"/>
<path fill-rule="evenodd" clip-rule="evenodd" d="M49.9929 24.6347C49.4189 23.8987 46.1843 24.287 44.7324 24.4592C44.2901 24.5132 44.2226 24.1283 44.621 23.8514C47.1972 22.0383 51.4245 22.5616 51.9174 23.1694C52.4104 23.7805 51.7891 28.0179 49.3683 30.0404C48.9968 30.351 48.6423 30.1856 48.8078 29.7737C49.3514 28.4163 50.5703 25.3742 49.9929 24.6347Z" fill="#4C4C4D"/>
<path fill-rule="evenodd" clip-rule="evenodd" d="M44.8346 11.0526V9.29008C44.8346 9.02335 45.0372 8.8444 45.2803 8.8444H53.171C53.4242 8.8444 53.6268 9.02672 53.6268 9.29008V10.7993C53.6234 11.0526 53.4107 11.3835 53.0326 11.9068L48.9437 17.7446C50.4631 17.7075 52.0669 17.9337 53.4445 18.7103C53.7551 18.8859 53.8395 19.1425 53.8632 19.3957V21.2764C53.8632 21.533 53.5795 21.8335 53.2824 21.6782C50.8548 20.4053 47.6303 20.2668 44.946 21.6917C44.6725 21.8403 44.3855 21.5431 44.3855 21.2865V19.5004C44.3855 19.2134 44.3889 18.7238 44.6759 18.2883L49.413 11.4949H45.2904C45.0372 11.4949 44.8346 11.3159 44.8346 11.0526Z" fill="#4C4C4D"/>
<path fill-rule="evenodd" clip-rule="evenodd" d="M16.0506 22.0496H13.6499C13.4203 22.0327 13.238 21.8605 13.2211 21.6411V9.3205C13.2211 9.07402 13.4271 8.87818 13.6837 8.87818H15.9223C16.1552 8.88831 16.3409 9.06726 16.3578 9.29011V10.9007H16.4017C16.9858 9.34413 18.0832 8.6182 19.5621 8.6182C21.0646 8.6182 22.0032 9.34413 22.6785 10.9007C23.2592 9.34413 24.5794 8.6182 25.9941 8.6182C27.0003 8.6182 28.101 9.0335 28.7729 9.96539C29.5326 11.002 29.3773 12.5078 29.3773 13.828L29.3739 21.6039C29.3739 21.8504 29.168 22.0496 28.9114 22.0496H26.5141C26.2744 22.0327 26.0819 21.8403 26.0819 21.6039V15.0739C26.0819 14.554 26.1292 13.2574 26.0144 12.7644C25.8355 11.9372 25.2986 11.7042 24.6031 11.7042C24.0223 11.7042 23.4146 12.0925 23.1681 12.7138C22.9216 13.3351 22.9452 14.375 22.9452 15.0739V21.6039C22.9452 21.8504 22.7393 22.0496 22.4827 22.0496H20.0854C19.8423 22.0327 19.6532 21.8403 19.6532 21.6039L19.6498 15.0739C19.6498 13.6997 19.8761 11.6772 18.171 11.6772C16.4456 11.6772 16.5131 13.6491 16.5131 15.0739V21.6039C16.5131 21.8504 16.3072 22.0496 16.0506 22.0496Z" fill="#4C4C4D"/>
<path fill-rule="evenodd" clip-rule="evenodd" d="M60.4201 8.6182C63.9822 8.6182 65.9101 11.6772 65.9101 15.5669C65.9101 19.3248 63.7796 22.3062 60.4201 22.3062C56.9221 22.3062 55.0178 19.2472 55.0178 15.4352C55.0178 11.5996 56.9457 8.6182 60.4201 8.6182ZM60.4403 11.1336C58.6711 11.1336 58.5597 13.5444 58.5597 15.0469C58.5597 16.5528 58.536 19.7671 60.4201 19.7671C62.2805 19.7671 62.3683 17.1741 62.3683 15.5939C62.3683 14.554 62.3244 13.3114 62.0104 12.3255C61.7403 11.4679 61.2034 11.1336 60.4403 11.1336Z" fill="#4C4C4D"/>
<path fill-rule="evenodd" clip-rule="evenodd" d="M70.5292 22.0496H68.1387C67.899 22.0327 67.7065 21.8403 67.7065 21.6039L67.7031 9.27998C67.7234 9.05376 67.9226 8.87818 68.1657 8.87818H70.3908C70.6001 8.88831 70.7723 9.03012 70.8196 9.22258V11.1066H70.8635C71.5354 9.42179 72.4774 8.6182 74.1352 8.6182C75.2123 8.6182 76.2624 9.00649 76.9376 10.0701C77.5657 11.056 77.5657 12.7138 77.5657 13.9057V21.6613C77.5386 21.8774 77.3394 22.0496 77.1031 22.0496H74.6957C74.4762 22.0327 74.2939 21.8707 74.2703 21.6613V14.9693C74.2703 13.6221 74.4256 11.6502 72.7678 11.6502C72.1836 11.6502 71.6468 12.0419 71.3801 12.6361C71.0424 13.3891 70.9985 14.1387 70.9985 14.9693V21.6039C70.9951 21.8504 70.7858 22.0496 70.5292 22.0496Z" fill="#4C4C4D"/>
<path fill-rule="evenodd" clip-rule="evenodd" d="M38.5443 16.1645C38.5443 17.0998 38.568 17.8797 38.0953 18.7103C37.7137 19.3856 37.106 19.8009 36.4341 19.8009C35.5123 19.8009 34.9721 19.0986 34.9721 18.062C34.9721 16.0159 36.8055 15.6445 38.5443 15.6445V16.1645ZM40.9652 22.0158C40.8066 22.1576 40.577 22.1678 40.398 22.0732C39.6012 21.4114 39.456 21.1042 39.0204 20.4728C37.7036 21.8166 36.7683 22.2184 35.0633 22.2184C33.0408 22.2184 31.4707 20.9725 31.4707 18.4773C31.4707 16.5291 32.5242 15.2022 34.0301 14.5539C35.3334 13.9799 37.1533 13.8786 38.5443 13.72V13.4093C38.5443 12.8387 38.5882 12.1634 38.2506 11.6705C37.9602 11.2282 37.3997 11.0458 36.9034 11.0458C35.9884 11.0458 35.1747 11.5151 34.9755 12.4876C34.9349 12.7036 34.7763 12.9164 34.5568 12.9265L32.2304 12.6766C32.0346 12.6327 31.8151 12.4741 31.8725 12.1736C32.406 9.35086 34.9586 8.5 37.241 8.5C38.4093 8.5 39.9354 8.81063 40.8572 9.69525C42.0254 10.7858 41.914 12.2411 41.914 13.8246V17.5657C41.914 18.6901 42.38 19.183 42.8189 19.7908C42.9708 20.0069 43.0046 20.2668 42.8088 20.4289C42.3192 20.8375 41.4481 21.5972 40.9686 22.0226L40.9652 22.0158Z" fill="#4C4C4D"/>
<path fill-rule="evenodd" clip-rule="evenodd" d="M7.07263 16.1645C7.07263 17.0997 7.09626 17.8797 6.62356 18.7103C6.24203 19.3856 5.63765 19.8009 4.96236 19.8009C4.0406 19.8009 3.50375 19.0986 3.50375 18.062C3.50375 16.0159 5.33715 15.6445 7.07263 15.6445V16.1645ZM9.49352 22.0158C9.33483 22.1576 9.10523 22.1678 8.92628 22.0732C8.12945 21.4114 7.98764 21.1042 7.5487 20.4728C6.2319 21.8166 5.30001 22.2184 3.59154 22.2184C1.57243 22.2184 -0.000976562 20.9725 -0.000976562 18.4773C-0.000976562 16.5291 1.05584 15.2022 2.55835 14.5539C3.86165 13.9799 5.68154 13.8786 7.07263 13.72V13.4093C7.07263 12.8387 7.11652 12.1634 6.78226 11.6705C6.4885 11.2281 5.92802 11.0458 5.43506 11.0458C4.52005 11.0458 3.70296 11.5151 3.50375 12.4876C3.46323 12.7036 3.30454 12.9164 3.08845 12.9265L0.758718 12.6766C0.562886 12.6327 0.346794 12.474 0.400817 12.1735C0.937668 9.35086 3.48687 8.5 5.76933 8.5C6.93757 8.5 8.46371 8.81063 9.38547 9.69525C10.5537 10.7858 10.4423 12.2411 10.4423 13.8246V17.5657C10.4423 18.69 10.9082 19.183 11.3472 19.7908C11.5025 20.0068 11.5363 20.2668 11.3404 20.4289C10.8508 20.8374 9.97972 21.5971 9.50027 22.0226L9.49352 22.0158Z" fill="#4C4C4D"/>
</g>
<defs>
<clipPath id="clip0_14_196228">
<rect width="77.9166" height="34" fill="white"/>
</clipPath>
</defs>
</svg>
