<svg width="17" height="21" viewBox="0 0 17 21" fill="none" xmlns="http://www.w3.org/2000/svg">
<path fill-rule="evenodd" clip-rule="evenodd" d="M7.78975 20.101C7.81995 20.1185 7.84369 20.1321 7.8605 20.1415L7.88843 20.1571C8.1113 20.2794 8.38776 20.2785 8.61084 20.1575L8.6395 20.1415C8.65631 20.1321 8.68005 20.1185 8.71025 20.101C8.77066 20.066 8.85697 20.015 8.9655 19.9482C9.18246 19.8146 9.48875 19.6176 9.85461 19.3591C10.5851 18.8431 11.5597 18.0774 12.5365 17.0773C14.4807 15.0868 16.5 12.0962 16.5 8.25C16.5 3.69365 12.8063 0 8.25 0C3.69365 0 0 3.69365 0 8.25C0 12.0962 2.01932 15.0868 3.96346 17.0773C4.94025 18.0774 5.91491 18.8431 6.64539 19.3591C7.01125 19.6176 7.31754 19.8146 7.5345 19.9482C7.64303 20.015 7.72934 20.066 7.78975 20.101ZM8.25 11.25C9.90685 11.25 11.25 9.90685 11.25 8.25C11.25 6.59315 9.90685 5.25 8.25 5.25C6.59315 5.25 5.25 6.59315 5.25 8.25C5.25 9.90685 6.59315 11.25 8.25 11.25Z" fill="#262626"/>
</svg>
