<svg width="79" height="22" viewBox="0 0 79 22" fill="none" xmlns="http://www.w3.org/2000/svg">
<path d="M10.8117 19.8803C9.62893 20.088 8.4253 20.1503 7.18021 20.3161L3.38251 9.19316V20.7935C2.1997 20.918 1.12062 21.084 0 21.25V0H3.15438L7.4707 12.0571V0H10.8117V19.8803ZM17.3486 7.78199C18.6354 7.78199 20.6068 7.71971 21.7896 7.71971V11.04C20.3161 11.04 18.5938 11.04 17.3486 11.1022V16.0413C19.2994 15.9168 21.2501 15.7506 23.2214 15.6884V18.884L14.0282 19.6105V0H23.2214V3.32032H17.3486V7.78199ZM35.5688 3.32039H32.124V18.5938C31.0034 18.5938 29.8828 18.5938 28.8039 18.6352V3.32039H25.3591V0H35.569L35.5688 3.32039ZM40.9643 7.55378H45.509V10.874H40.9643V18.4071H37.706V0H46.9824V3.32032H40.9643V7.55378ZM52.3779 15.5017C54.2664 15.5431 56.1754 15.6886 58.0224 15.7922V19.071C55.055 18.8841 52.0874 18.6976 49.0576 18.6352V0H52.3779V15.5017ZM60.8239 19.2993C61.8823 19.3617 63.0029 19.4239 64.0819 19.5483V0H60.8239V19.2993ZM78.6292 0L74.4165 10.1062L78.6292 21.25C77.3839 21.084 76.1389 20.8557 74.8937 20.6481L72.5073 14.5057L70.0796 20.1503C68.8757 19.9426 67.7136 19.8803 66.5102 19.7143L70.7851 9.98161L66.9251 0H70.4943L72.6733 5.58229L74.9976 0H78.6292V0Z" fill="#4C4C4D"/>
</svg>
