<svg width="92" height="25" viewBox="0 0 92 25" fill="none" xmlns="http://www.w3.org/2000/svg">
<path d="M31.8294 20.3819V10.0721H32.0131L39.5176 20.3819H41.8792V5.24177H39.2552V15.5256H39.0716L31.567 5.24177H29.2054V20.3819H31.8294ZM49.305 20.6156C52.7687 20.6156 54.8941 18.3823 54.8941 14.6427C54.8941 10.9291 52.7687 8.66973 49.305 8.66973C45.8676 8.66973 43.716 10.9291 43.716 14.6427C43.7422 18.3823 45.8414 20.6156 49.305 20.6156ZM49.305 18.4342C47.4683 18.4342 46.4187 17.0578 46.4187 14.6427C46.4187 12.2535 47.4683 10.8511 49.305 10.8511C51.1418 10.8511 52.1914 12.2535 52.1914 14.6427C52.1914 17.0578 51.1418 18.4342 49.305 18.4342ZM57.2819 6.09876V8.98136H55.4451V11.0589H57.2819V17.3175C57.2819 19.5509 58.3315 20.4338 61.0079 20.4338C61.5065 20.4338 62.0051 20.3819 62.3987 20.304V18.2784C62.0838 18.3044 61.8739 18.3303 61.5065 18.3303C60.4044 18.3303 59.9059 17.8369 59.9059 16.6943V11.0589H62.3987V8.98136H59.9059V6.09876H57.2819ZM63.973 20.3819H66.597V8.90345H63.973V20.3819ZM65.285 7.00769C66.1509 7.00769 66.8594 6.30651 66.8594 5.44952C66.8594 4.56657 66.1509 3.8654 65.285 3.8654C64.4191 3.8654 63.7106 4.56657 63.7106 5.44952C63.7106 6.30651 64.4191 7.00769 65.285 7.00769ZM73.7867 20.6156C77.2503 20.6156 79.3757 18.3823 79.3757 14.6427C79.3757 10.9291 77.2503 8.66973 73.7867 8.66973C70.3493 8.66973 68.1976 10.9291 68.1976 14.6427C68.1976 18.3823 70.2968 20.6156 73.7867 20.6156ZM73.7867 18.4342C71.9499 18.4342 70.9003 17.0578 70.9003 14.6427C70.9003 12.2535 71.9499 10.8511 73.7867 10.8511C75.5972 10.8511 76.673 12.2535 76.673 14.6427C76.6468 17.0578 75.5972 18.4342 73.7867 18.4342ZM80.9239 20.3819H83.5479V13.7078C83.5479 12.0198 84.545 10.955 86.0931 10.955C87.6937 10.955 88.4284 11.838 88.4284 13.5779V20.3819H91.0524V12.9547C91.0524 10.2019 89.6355 8.66973 87.064 8.66973C85.3322 8.66973 84.1776 9.44881 83.6266 10.7473H83.4429V8.90345H80.8976C80.9239 8.90345 80.9239 20.3819 80.9239 20.3819Z" fill="#4C4C4D"/>
<path fill-rule="evenodd" clip-rule="evenodd" d="M4.04604 4.27274C4.80975 4.88884 5.08598 4.8402 6.51591 4.74292L19.9865 3.93226C20.2789 3.93226 20.0352 3.64041 19.9377 3.60799L17.6953 2.00287C17.2728 1.6786 16.6879 1.28948 15.5992 1.38676L2.56737 2.34335C2.09614 2.39199 1.99865 2.63519 2.19364 2.81353L4.04604 4.27274ZM4.8585 7.40191V21.54C4.8585 22.302 5.23223 22.5776 6.09343 22.529L20.8964 21.6697C21.7576 21.621 21.8551 21.1022 21.8551 20.4861V6.44533C21.8551 5.82922 21.6114 5.48874 21.0914 5.53738L5.62221 6.44533C5.05349 6.49397 4.8585 6.78581 4.8585 7.40191ZM19.4665 8.16394C19.564 8.58549 19.4665 9.02325 19.044 9.07189L18.329 9.21781V19.6592C17.7116 19.9835 17.1429 20.178 16.6554 20.178C15.8917 20.178 15.6967 19.9348 15.128 19.2215L10.4645 11.9092V18.9783L11.9431 19.3025C11.9431 19.3025 11.9431 20.1618 10.7569 20.1618L7.47461 20.3564C7.37712 20.1618 7.47461 19.6916 7.79959 19.5944L8.6608 19.3512V10.0123L7.47461 9.91498C7.37712 9.49344 7.62085 8.87733 8.28707 8.82869L11.8131 8.58549L16.6716 15.9788V9.4448L15.4367 9.29888C15.3392 8.78005 15.7292 8.39093 16.2004 8.34229L19.4665 8.16394ZM1.47867 1.04628L15.0467 0.0572622C16.7041 -0.088658 17.1429 0.00862249 18.1828 0.77065L22.5051 3.80255C23.22 4.32138 23.4638 4.4673 23.4638 5.03476V21.6859C23.4638 22.7235 23.09 23.3396 21.7576 23.4369L6.01219 24.3935C5.00474 24.4422 4.53351 24.2962 4.01354 23.6315L0.812458 19.4971C0.243737 18.7351 0 18.1676 0 17.5028V2.70004C0 1.84073 0.38998 1.14356 1.47867 1.04628Z" fill="#4C4C4D"/>
</svg>
