<svg width="100" height="30" viewBox="0 0 100 30" fill="none" xmlns="http://www.w3.org/2000/svg">
<path d="M14.8753 0C6.66006 0 0 6.65988 0 14.8751C0 23.0907 6.66006 29.75 14.8753 29.75C23.0914 29.75 29.7507 23.0907 29.7507 14.8751C29.7507 6.66041 23.0914 0.000710516 14.8751 0.000710516L14.8753 0ZM21.697 21.4541C21.4305 21.8911 20.8586 22.0297 20.4216 21.7614C16.929 19.6281 12.5323 19.145 7.35442 20.328C6.85546 20.4417 6.35809 20.129 6.24441 19.6299C6.13019 19.1307 6.44158 18.6334 6.94178 18.5197C12.6082 17.2251 17.4687 17.7825 21.3897 20.1788C21.8267 20.447 21.9652 21.0172 21.697 21.4541ZM23.5177 17.4038C23.182 17.9495 22.4679 18.1218 21.9226 17.7861C17.9241 15.3284 11.8291 14.6166 7.0997 16.0522C6.48634 16.2375 5.83852 15.8918 5.65237 15.2796C5.46763 14.6662 5.81348 14.0196 6.42577 13.8331C11.828 12.1939 18.5441 12.9879 23.1358 15.8096C23.6811 16.1453 23.8534 16.8594 23.5177 17.404V17.4038ZM23.674 13.1862C18.8798 10.3386 10.9699 10.0768 6.39255 11.466C5.65752 11.6889 4.88021 11.274 4.65746 10.539C4.43471 9.80358 4.8493 9.0268 5.58487 8.80334C10.8393 7.20822 19.5743 7.51641 25.094 10.7932C25.7565 11.1855 25.9733 12.0394 25.5807 12.6997C25.1899 13.3608 24.3337 13.5787 23.6747 13.1862H23.674ZM40.4707 13.7319C37.9022 13.1194 37.4457 12.6895 37.4457 11.7863C37.4457 10.9329 38.2486 10.3587 39.444 10.3587C40.6022 10.3587 41.7496 10.7948 42.954 11.6925C42.9895 11.7197 43.0357 11.7305 43.0801 11.7234C43.1263 11.7167 43.1654 11.692 43.192 11.6548L44.4461 9.88706C44.4976 9.81423 44.4834 9.71387 44.4141 9.65827C42.9806 8.50848 41.3677 7.94947 39.4813 7.94947C36.7085 7.94947 34.7706 9.61369 34.7706 11.9948C34.7706 14.5482 36.4421 15.4524 39.3303 16.1503C41.7869 16.7164 42.2026 17.1907 42.2026 18.0383C42.2026 18.978 41.3642 19.5624 40.0142 19.5624C38.515 19.5624 37.2911 19.0561 35.9234 17.8731C35.8896 17.8429 35.8434 17.8305 35.8008 17.8323C35.7546 17.8358 35.7138 17.8571 35.6854 17.8909L34.2785 19.5642C34.2199 19.6352 34.227 19.7382 34.2945 19.7986C35.8861 21.2197 37.8436 21.9693 39.9574 21.9693C42.9451 21.9693 44.8759 20.3369 44.8759 17.8092C44.8813 15.6764 43.6041 14.4951 40.476 13.7342L40.4707 13.7319ZM51.6365 11.1989C50.3416 11.1989 49.2794 11.709 48.4019 12.7544V11.5777C48.4019 11.4848 48.3273 11.4092 48.2349 11.4092H45.9346C45.8423 11.4092 45.7676 11.4848 45.7676 11.5777V24.6515C45.7676 24.7439 45.8423 24.8202 45.9346 24.8202H48.2349C48.3273 24.8202 48.4019 24.7439 48.4019 24.6515V20.5251C49.2794 21.5074 50.3416 21.9888 51.6365 21.9888C54.0434 21.9888 56.4805 20.1361 56.4805 16.5944C56.4841 13.0519 54.047 11.1987 51.6383 11.1987L51.6365 11.1989ZM53.8054 16.5944C53.8054 18.3971 52.6952 19.6565 51.1037 19.6565C49.5316 19.6565 48.3451 18.3403 48.3451 16.5944C48.3451 14.8483 49.5316 13.5324 51.1037 13.5324C52.6686 13.5322 53.8054 14.8197 53.8054 16.5942V16.5944ZM62.7242 11.1989C59.6246 11.1989 57.1964 13.5855 57.1964 16.6329C57.1964 19.6476 59.6086 22.0084 62.6869 22.0084C65.7972 22.0084 68.2325 19.6299 68.2325 16.5944C68.2325 13.5692 65.8132 11.1992 62.7242 11.1992V11.1989ZM62.7242 19.6743C61.0758 19.6743 59.8324 18.3492 59.8324 16.5935C59.8324 14.8298 61.0332 13.55 62.6869 13.55C64.346 13.55 65.5965 14.8746 65.5965 16.632C65.5965 18.3954 64.3886 19.6743 62.7242 19.6743ZM74.851 11.4092H72.3198V8.82181C72.3198 8.72909 72.2452 8.65342 72.1528 8.65342H69.8525C69.7601 8.65342 69.6838 8.72909 69.6838 8.82181V11.4092H68.5789C68.4865 11.4092 68.4119 11.4848 68.4119 11.5777V13.5542C68.4119 13.647 68.4865 13.7228 68.5789 13.7228H69.6838V18.8377C69.6838 20.9035 70.7122 21.9515 72.7426 21.9515C73.5668 21.9515 74.2506 21.781 74.8954 21.4151C74.9487 21.3866 74.9807 21.3298 74.9807 21.2694V19.3865C74.9807 19.3297 74.9505 19.2746 74.9008 19.2444C74.851 19.2125 74.7888 19.2107 74.7373 19.2373C74.295 19.4594 73.867 19.5624 73.3874 19.5624C72.6502 19.5624 72.3198 19.2267 72.3198 18.4771V13.7237H74.851C74.9434 13.7237 75.018 13.648 75.018 13.5551V11.5788C75.0215 11.4859 74.9469 11.4102 74.8528 11.4102L74.851 11.4092ZM83.6686 11.4193V11.1015C83.6686 10.1667 84.0274 9.74975 84.8303 9.74975C85.3099 9.74975 85.6953 9.84496 86.127 9.98884C86.1803 10.0055 86.2353 9.99719 86.278 9.9654C86.3224 9.9336 86.3472 9.88262 86.3472 9.82862V7.89068C86.3472 7.81661 86.3011 7.75106 86.2282 7.72921C85.7735 7.59368 85.1909 7.4546 84.3169 7.4546C82.1943 7.4546 81.0698 8.65076 81.0698 10.9125V11.3992H79.965C79.8726 11.3992 79.7962 11.4749 79.7962 11.5676V13.5542C79.7962 13.647 79.8726 13.7228 79.965 13.7228H81.0698V21.6105C81.0698 21.7046 81.1462 21.7792 81.2386 21.7792H83.5371C83.6313 21.7792 83.7059 21.7046 83.7059 21.6105V13.7233H85.8534L89.1431 21.6105C88.7701 22.4382 88.4024 22.6034 87.9015 22.6034C87.4965 22.6034 87.0684 22.4826 86.6332 22.2428C86.5924 22.2215 86.5426 22.218 86.5 22.2304C86.4556 22.2464 86.4183 22.2783 86.4005 22.321L85.6207 24.0316C85.5834 24.1133 85.6154 24.2074 85.6936 24.25C86.5071 24.6906 87.2407 24.8789 88.1484 24.8789C89.8466 24.8789 90.7862 24.0866 91.6122 21.9586L95.6018 11.6495C95.6231 11.5976 95.616 11.539 95.584 11.493C95.5538 11.4474 95.5023 11.4198 95.4472 11.4198H93.0528C92.9799 11.4198 92.916 11.4655 92.8929 11.5328L90.4398 18.5375L87.7541 11.5282C87.7292 11.463 87.667 11.4198 87.5978 11.4198H83.6686V11.4193ZM78.5564 11.4092H76.2561C76.1637 11.4092 76.0873 11.4848 76.0873 11.5777V21.6105C76.0873 21.7046 76.1637 21.7792 76.2561 21.7792H78.5564C78.6488 21.7792 78.7251 21.7046 78.7251 21.6105V11.5785C78.7251 11.4856 78.6505 11.4099 78.5564 11.4099V11.4092ZM77.4196 6.84071C76.5083 6.84071 75.7694 7.57823 75.7694 8.48929C75.7694 9.40089 76.5083 10.1393 77.4196 10.1393C78.3308 10.1393 79.068 9.40089 79.068 8.48929C79.068 7.5784 78.329 6.84071 77.4196 6.84071ZM97.5664 14.6351C96.6569 14.6351 95.9481 13.9042 95.9481 13.0165C95.9481 12.1289 96.6658 11.3896 97.5752 11.3896C98.4847 11.3896 99.1935 12.1204 99.1935 13.0073C99.1935 13.8949 98.4758 14.6351 97.5664 14.6351ZM97.5752 11.5506C96.7457 11.5506 96.1187 12.2096 96.1187 13.0165C96.1187 13.8232 96.7422 14.4733 97.5664 14.4733C98.3959 14.4733 99.0229 13.8148 99.0229 13.0073C99.0229 12.2007 98.3994 11.5506 97.5752 11.5506ZM97.9341 13.1737L98.3923 13.8146H98.0051L97.593 13.2267H97.2395V13.8146H96.9162V12.1158H97.6729C98.0691 12.1158 98.3284 12.3177 98.3284 12.6577C98.3302 12.9363 98.1685 13.1064 97.9358 13.1737H97.9341ZM97.6605 12.4073H97.2395V12.9446H97.6605C97.8701 12.9446 97.9962 12.8418 97.9962 12.6757C97.9962 12.5009 97.8701 12.4073 97.6605 12.4073Z" fill="#4C4C4D"/>
</svg>
