<svg width="68" height="31" viewBox="0 0 68 31" fill="none" xmlns="http://www.w3.org/2000/svg">
<path d="M0 24.2852L6.98022 13.4238H0.8269C0.774753 13.1109 0.752404 12.7682 0.752404 12.3883C0.752404 12.0233 0.774753 11.6881 0.8269 11.3826H10.7869L10.9136 11.7178L3.88121 22.6016H10.4741C10.5262 22.9443 10.5486 23.3019 10.5486 23.6595C10.5486 24.0022 10.5262 24.3299 10.4741 24.6428H0.126642L0 24.2852Z" fill="#4C4C4D"/>
<path d="M20.1436 15.9046C20.1436 14.8841 19.8829 14.1838 19.3689 13.7815C18.8549 13.3867 18.1024 13.1856 17.1191 13.1856C16.5157 13.1856 15.9495 13.2303 15.4281 13.3271C14.8991 13.4239 14.3926 13.5431 13.886 13.6996C13.5582 13.1334 13.3943 12.448 13.3943 11.6584C13.9828 11.4722 14.6235 11.3232 15.3312 11.2189C16.0389 11.1146 16.7168 11.0624 17.3724 11.0624C19.0932 11.0624 20.4044 11.4573 21.3058 12.2395C22.1997 13.0217 22.6541 14.2806 22.6541 16.0015V24.3003C22.0507 24.4344 21.3207 24.5834 20.4565 24.7249C19.5924 24.8739 18.7133 24.9409 17.8194 24.9409C16.9776 24.9409 16.2103 24.8665 15.5324 24.71C14.8544 24.5536 14.2734 24.3077 13.7966 23.9576C13.3198 23.6149 12.9548 23.1754 12.6941 22.639C12.4333 22.1027 12.3067 21.4546 12.3067 20.7022C12.3067 19.9646 12.4557 19.3091 12.7611 18.7504C13.0591 18.1917 13.4688 17.7223 13.9903 17.3573C14.5043 16.9848 15.1003 16.7092 15.7782 16.5304C16.4486 16.3516 17.1564 16.2548 17.9013 16.2548C18.4526 16.2548 18.907 16.2697 19.2571 16.292C19.6073 16.3144 19.9052 16.3516 20.1511 16.3814V15.9046H20.1436ZM20.1436 18.4151C19.8829 18.3779 19.5551 18.3481 19.1603 18.3108C18.7655 18.2736 18.4302 18.2587 18.1546 18.2587C17.0819 18.2587 16.2699 18.4598 15.7111 18.8547C15.1524 19.2495 14.8693 19.8529 14.8693 20.6649C14.8693 21.1789 14.9662 21.5886 15.1524 21.8792C15.3387 22.1697 15.5771 22.3932 15.8601 22.5496C16.1432 22.7061 16.4561 22.8029 16.8062 22.8327C17.1489 22.87 17.4767 22.8849 17.7896 22.8849C18.1844 22.8849 18.5941 22.8625 19.0187 22.8178C19.4434 22.7731 19.8158 22.7135 20.1436 22.6241V18.4151Z" fill="#4C4C4D"/>
<path d="M25.4476 11.3832C25.619 11.3459 25.7978 11.3236 25.9766 11.3087C26.1553 11.2938 26.3416 11.2863 26.5353 11.2863C26.7066 11.2863 26.8854 11.2938 27.0791 11.3087C27.2653 11.3236 27.4516 11.3534 27.6229 11.3832C27.6378 11.4204 27.6602 11.5247 27.69 11.7035C27.7123 11.8823 27.7421 12.076 27.7645 12.2846C27.7868 12.4932 27.8166 12.6869 27.8389 12.8805C27.8613 13.0742 27.8762 13.1934 27.8762 13.2456C28.0475 12.9699 28.2561 12.7018 28.4945 12.441C28.7329 12.1803 29.0234 11.9493 29.3587 11.7408C29.6939 11.5322 30.0738 11.3683 30.4984 11.2491C30.9231 11.1299 31.3924 11.0703 31.9064 11.0703C32.6811 11.0703 33.4038 11.1969 34.0668 11.4577C34.7298 11.7184 35.2959 12.1132 35.7727 12.6571C36.2495 13.2009 36.6145 13.8937 36.8827 14.728C37.1509 15.5624 37.285 16.5532 37.285 17.693C37.285 19.9725 36.6667 21.753 35.4375 23.0343C34.2009 24.3156 32.4577 24.9637 30.2005 24.9637C29.8205 24.9637 29.4332 24.9414 29.0383 24.8892C28.6435 24.8371 28.2934 24.77 28.0028 24.6806V30.7595C27.7943 30.7967 27.5782 30.8191 27.3398 30.834C27.1089 30.8489 26.8929 30.8563 26.7066 30.8563C26.5204 30.8563 26.3043 30.8489 26.0734 30.834C25.8425 30.8191 25.6264 30.7893 25.4402 30.7595V11.3832H25.4476ZM28.0103 22.4756C28.3381 22.5948 28.6733 22.6841 29.016 22.7363C29.3587 22.7884 29.8056 22.8108 30.3643 22.8108C30.9827 22.8108 31.5563 22.7139 32.0703 22.5128C32.5843 22.3117 33.0313 22.0062 33.4038 21.5965C33.7762 21.1793 34.0668 20.6579 34.2828 20.0321C34.4988 19.4063 34.6031 18.6539 34.6031 17.7972C34.6031 16.4191 34.3498 15.324 33.8433 14.512C33.3367 13.7 32.5024 13.2977 31.3477 13.2977C30.9156 13.2977 30.5059 13.3722 30.1036 13.5287C29.7088 13.6851 29.3512 13.916 29.0458 14.2289C28.7329 14.5418 28.4871 14.9292 28.2934 15.4059C28.0997 15.8827 28.0103 16.4414 28.0103 17.097V22.4756Z" fill="#4C4C4D"/>
<path d="M40.4734 13.394H38.7898C38.7525 13.2525 38.7302 13.096 38.7153 12.9172C38.7004 12.7384 38.6929 12.5596 38.6929 12.3883C38.6929 12.217 38.7004 12.0382 38.7153 11.8594C38.7302 11.6806 38.76 11.5167 38.7898 11.3826H42.9839V24.6503C42.7976 24.6875 42.5816 24.7099 42.3506 24.7248C42.1197 24.7397 41.9037 24.7471 41.7174 24.7471C41.5461 24.7471 41.345 24.7397 41.1066 24.7248C40.8756 24.7099 40.6596 24.6801 40.4734 24.6503V13.394Z" fill="#4C4C4D"/>
<path d="M48.4891 18.6463C48.5263 20.0915 48.8988 21.1568 49.6139 21.8272C50.3291 22.4977 51.3869 22.8329 52.78 22.8329C54.0017 22.8329 55.1713 22.6169 56.2738 22.1848C56.4154 22.4455 56.5271 22.7584 56.6091 23.1309C56.6985 23.5034 56.7432 23.8684 56.7655 24.2334C56.1993 24.4718 55.5736 24.6581 54.8882 24.7772C54.2103 24.8964 53.4505 24.956 52.6236 24.956C51.4167 24.956 50.3813 24.7847 49.5171 24.4495C48.653 24.1142 47.9452 23.6375 47.3865 23.0266C46.8278 22.4157 46.4181 21.6931 46.1574 20.8513C45.8966 20.017 45.77 19.1007 45.77 18.095C45.77 17.1117 45.8966 16.1954 46.1425 15.3387C46.3883 14.482 46.7757 13.7445 47.2897 13.1112C47.8037 12.4855 48.4593 11.9789 49.2415 11.6139C50.0237 11.2414 50.9549 11.0552 52.0201 11.0552C52.9364 11.0552 53.7335 11.2116 54.4263 11.5245C55.1192 11.8374 55.6928 12.262 56.1621 12.8058C56.624 13.3496 56.9815 13.9977 57.2199 14.7427C57.4583 15.4951 57.585 16.3071 57.585 17.1861C57.585 17.4245 57.5775 17.6853 57.5552 17.946C57.5403 18.2142 57.5179 18.4451 57.503 18.6314H48.4891V18.6463ZM55.0596 16.7317C55.0596 16.2475 54.9925 15.7856 54.8659 15.3461C54.7392 14.9066 54.5455 14.5267 54.2997 14.1989C54.0464 13.8711 53.7335 13.6104 53.3462 13.4092C52.9588 13.2081 52.4969 13.1112 51.9606 13.1112C50.9102 13.1112 50.1056 13.4316 49.5395 14.0648C48.9807 14.7055 48.6381 15.5919 48.5189 16.7317H55.0596Z" fill="#4C4C4D"/>
<path d="M60.4158 11.3826C60.6021 11.3454 60.7883 11.323 60.9597 11.3081C61.131 11.2932 61.3098 11.2858 61.5035 11.2858C61.6897 11.2858 61.8834 11.2932 62.0696 11.3081C62.2559 11.323 62.4347 11.3528 62.5837 11.3826C62.6358 11.6434 62.688 11.9786 62.7401 12.4032C62.7922 12.8278 62.8146 13.1854 62.8146 13.4759C63.1796 12.8874 63.6564 12.3809 64.2523 11.9488C64.8483 11.5167 65.6082 11.3007 66.5394 11.3007C66.6809 11.3007 66.8224 11.3081 66.964 11.3156C67.113 11.323 67.2322 11.3379 67.3365 11.3528C67.3737 11.5093 67.3961 11.6732 67.411 11.8445C67.4259 12.0158 67.4333 12.1946 67.4333 12.3883C67.4333 12.5969 67.4184 12.8129 67.3961 13.0364C67.3737 13.2599 67.3365 13.4759 67.3067 13.6845C67.1651 13.6473 67.0236 13.6324 66.882 13.6324C66.733 13.6324 66.6213 13.6324 66.5319 13.6324C66.07 13.6324 65.6231 13.6994 65.1984 13.8261C64.7738 13.9527 64.3939 14.1837 64.0587 14.5114C63.7234 14.8392 63.4552 15.2862 63.2541 15.8598C63.053 16.426 62.9561 17.1635 62.9561 18.0574V24.6503C62.7699 24.6875 62.5539 24.7099 62.3229 24.7248C62.092 24.7397 61.8759 24.7471 61.6897 24.7471C61.5035 24.7471 61.2874 24.7397 61.0565 24.7248C60.8256 24.7099 60.6021 24.6801 60.3935 24.6503V11.3826H60.4158Z" fill="#4C4C4D"/>
<path d="M45.4198 3.57578H42.9167L44.6897 1.80279C44.5482 1.6091 44.3917 1.42286 44.2278 1.25152C44.0565 1.08018 43.8777 0.923744 43.6766 0.789652L41.9036 2.56264V0.0595964C41.6726 0.0223486 41.4343 0 41.1884 0H41.181C40.9351 0 40.6968 0.0223486 40.4658 0.0595964V2.56264L38.6928 0.789652C38.4991 0.931194 38.3129 1.08763 38.1416 1.25152C37.9702 1.42286 37.8212 1.60165 37.6797 1.80279L39.4601 3.57578H36.9571C36.9571 3.57578 36.8975 4.04511 36.8975 4.29094C36.8975 4.53678 36.9198 4.77516 36.9571 5.0061H39.4601L37.6871 6.77909C37.9628 7.16647 38.3054 7.50915 38.7003 7.79223L40.4733 6.01924V8.52228C40.7042 8.55953 40.9426 8.58188 41.1884 8.58188H41.1959C41.4417 8.58188 41.6801 8.55953 41.911 8.52228V6.01924L43.684 7.79223C43.8777 7.65069 44.0639 7.49425 44.2353 7.33036C44.4066 7.15902 44.5631 6.98023 44.6972 6.77909L42.9242 5.0061H45.4272C45.4645 4.77516 45.4868 4.53678 45.4868 4.29094V4.28349C45.4794 4.04511 45.4645 3.80672 45.4198 3.57578ZM42.2612 4.29839C42.2612 4.61872 42.2016 4.92415 42.0973 5.20724C41.8142 5.31153 41.5087 5.37113 41.1884 5.37113C40.8681 5.37113 40.5627 5.31153 40.2796 5.20724C40.1753 4.92415 40.1157 4.61872 40.1157 4.29839V4.29094C40.1157 3.97061 40.1753 3.66518 40.2796 3.3821C40.5627 3.2778 40.8681 3.21821 41.1884 3.21821C41.5087 3.21821 41.8142 3.2778 42.0973 3.3821C42.2016 3.66518 42.2612 3.97061 42.2612 4.29839Z" fill="#4C4C4D"/>
</svg>
