<svg width="70" height="16" viewBox="0 0 70 16" fill="none" xmlns="http://www.w3.org/2000/svg">
<path fill-rule="evenodd" clip-rule="evenodd" d="M56.4593 4.67304C56.7244 5.13036 56.8111 5.65068 56.8397 6.23563L56.8773 7.01529V12.4672L56.9158 13.2476C56.9927 14.5223 57.9327 15.4647 59.2171 15.5449L59.9935 15.5833V7.01529L60.032 6.23563C60.0639 5.65722 60.1498 5.12709 60.4189 4.66649C60.6932 4.19406 61.0869 3.8021 61.5606 3.52996C62.0343 3.25783 62.5712 3.11509 63.1174 3.11608C63.6637 3.11708 64.2001 3.26177 64.6728 3.53563C65.1454 3.80949 65.5377 4.20289 65.8103 4.67631C66.0753 5.13363 66.158 5.66377 66.1899 6.23563L66.2283 7.01283V12.4672L66.2668 13.2476C66.347 14.5288 67.2796 15.4713 68.5681 15.5449L69.3445 15.5833V6.23563C69.3445 4.5827 68.688 2.99743 67.5195 1.8284C66.3509 0.65937 64.7659 0.0022892 63.113 0.00163841C62.2283 0.000705412 61.3536 0.18858 60.5473 0.552711C59.741 0.916842 59.0217 1.44884 58.4375 2.11318C57.853 1.44911 57.1337 0.917233 56.3274 0.552994C55.5212 0.188755 54.6467 0.00051581 53.762 0.000820144C52.4677 0.000820144 51.2668 0.393513 50.2719 1.07172C49.6649 0.39433 48.3068 0.000820144 47.5272 0.000820144V15.5833L48.3069 15.5449C49.6109 15.459 50.5534 14.5419 50.6041 13.2476L50.6458 12.4672V7.01529L50.6843 6.23563C50.717 5.64741 50.7988 5.13036 51.0647 4.66977C51.3392 4.19763 51.7327 3.80576 52.206 3.53329C52.6794 3.26082 53.2159 3.11728 53.762 3.117C54.3085 3.11711 54.8455 3.26094 55.3189 3.53405C55.7923 3.80717 56.1856 4.19996 56.4593 4.67304ZM3.11618 15.5457L3.89583 15.5833H15.5825L15.5441 14.8061C15.4385 13.525 14.5312 12.5891 13.246 12.5056L12.4663 12.4672H5.45515L14.8029 3.11618L14.7644 2.33979C14.7039 1.04554 13.7581 0.110447 12.4663 0.039271L11.6867 0.00409251L0 0.000820144L0.0384511 0.780478C0.140715 2.04936 1.06109 3.00492 2.3357 3.07855L3.11618 3.117H10.1274L0.779657 12.468L0.818108 13.2476C0.895011 14.5321 1.82193 15.4623 3.11618 15.5449V15.5457ZM44.4683 2.28171C45.1919 3.00518 45.7659 3.86411 46.1576 4.80945C46.5492 5.75478 46.7508 6.76801 46.7508 7.79126C46.7508 8.81451 46.5492 9.82774 46.1576 10.7731C45.7659 11.7184 45.1919 12.5773 44.4683 13.3008C43.0063 14.7616 41.0242 15.5821 38.9575 15.5821C36.8908 15.5821 34.9087 14.7616 33.4467 13.3008C30.4042 10.2583 30.4042 5.32425 33.4467 2.28171C34.1697 1.55848 35.028 0.984738 35.9727 0.593241C36.9174 0.201745 37.93 0.000161503 38.9526 1.87821e-06C39.9769 -0.000709245 40.9912 0.200519 41.9377 0.592176C42.8841 0.983833 43.744 1.55823 44.4683 2.28253V2.28171ZM42.2635 4.48815C43.1399 5.36518 43.6321 6.55429 43.6321 7.79412C43.6321 9.03396 43.1399 10.2231 42.2635 11.1001C41.3865 11.9765 40.1973 12.4688 38.9575 12.4688C37.7177 12.4688 36.5286 11.9765 35.6515 11.1001C34.7752 10.2231 34.2829 9.03396 34.2829 7.79412C34.2829 6.55429 34.7752 5.36518 35.6515 4.48815C36.5286 3.61178 37.7177 3.1195 38.9575 3.1195C40.1973 3.1195 41.3865 3.61178 42.2635 4.48815ZM22.6002 1.87821e-06C23.6229 0.000268945 24.6355 0.201981 25.5802 0.593619C26.5249 0.985258 27.3832 1.55915 28.1061 2.28253C31.1495 5.32425 31.1495 10.2591 28.1061 13.3008C26.6442 14.7616 24.662 15.5821 22.5953 15.5821C20.5287 15.5821 18.5465 14.7616 17.0846 13.3008C14.042 10.2583 14.042 5.32425 17.0846 2.28171C17.8075 1.55848 18.6659 0.984738 19.6106 0.593241C20.5553 0.201745 21.5678 0.000161503 22.5904 1.87821e-06H22.6002ZM25.9013 4.48651C26.7779 5.36357 27.2704 6.55286 27.2704 7.7929C27.2704 9.03294 26.7779 10.2222 25.9013 11.0993C25.0243 11.9757 23.8352 12.4679 22.5953 12.4679C21.3555 12.4679 20.1664 11.9757 19.2894 11.0993C18.413 10.2223 17.9207 9.03314 17.9207 7.79331C17.9207 6.55347 18.413 5.36436 19.2894 4.48733C20.1664 3.61096 21.3555 3.11868 22.5953 3.11868C23.8352 3.11868 25.0243 3.61096 25.9013 4.48733V4.48651Z" fill="#4C4C4D"/>
</svg>
